<svg width="258" height="128" viewBox="0 0 258 128" fill="none" xmlns="http://www.w3.org/2000/svg">
<g clip-path="url(#clip0_1390_36)">
<mask id="mask0_1390_36" style="mask-type:luminance" maskUnits="userSpaceOnUse" x="0" y="0" width="258" height="128">
<path d="M258 0H0V128H258V0Z" fill="white"/>
</mask>
<g mask="url(#mask0_1390_36)">
<mask id="mask1_1390_36" style="mask-type:luminance" maskUnits="userSpaceOnUse" x="0" y="0" width="286" height="128">
<path d="M285.675 0H0V128H285.675V0Z" fill="white"/>
</mask>
<g mask="url(#mask1_1390_36)">
<path fill-rule="evenodd" clip-rule="evenodd" d="M17.6062 37.1451C17.6062 38.0851 17.9486 39.6518 19.1473 39.6518C20.8597 39.6518 20.5172 38.3984 21.8871 38.3984C21.8871 39.4952 21.5447 40.1218 21.031 40.7485C20.8597 41.2184 19.6611 43.2552 19.3187 43.5686C18.8048 44.0385 15.2089 44.1953 17.6062 48.5821C16.9213 49.6788 15.0377 52.3423 14.8664 53.4389C15.3801 53.5957 15.5513 53.7523 15.8939 54.0656C15.5513 54.6923 15.0377 54.849 14.6952 55.789C14.3526 56.729 14.524 56.8856 14.524 58.139C14.3526 57.9824 14.1815 57.9824 13.839 57.9824C11.4417 57.199 9.55808 57.199 7.33199 58.4525C6.81827 58.6091 6.4758 58.7658 5.96208 59.079C5.44837 59.3925 5.27713 59.7058 4.76342 60.0192C4.59218 60.3325 4.59218 60.3325 4.24971 60.6459C3.39352 61.7425 2.70857 62.3692 2.3661 63.936C1.85239 65.9727 2.19486 68.9495 2.87981 70.673C3.05105 71.4563 3.2223 71.7695 3.56476 72.3962C4.07847 73.493 4.76342 74.433 5.61962 75.373C5.96208 75.6864 6.4758 76.1563 6.98951 76.4698C7.16075 76.7831 7.33199 76.9398 7.50322 77.0965L9.90054 78.6632C14.3526 81.3267 20.6886 82.2667 27.1955 82.2667C28.5654 82.2667 28.0517 82.11 28.3942 84.6167C28.5654 86.1836 28.7368 89.6301 28.9078 91.197C28.9078 91.6669 28.9078 92.4503 29.0792 92.9203C29.0792 93.3904 29.0792 93.8603 29.0792 94.6437C29.0792 94.6437 27.3667 95.2704 26.5106 95.4272C25.6543 95.5838 24.4556 95.5838 23.4283 95.7405L19.4899 96.0538C18.6336 96.0538 17.9486 96.0538 17.0926 96.2105C14.3526 96.5238 10.5855 95.8971 8.35942 97.6206C7.8457 98.0905 7.16075 99.1873 7.16075 99.9707C7.16075 100.754 7.33199 101.381 7.33199 102.007C4.59218 102.634 2.02363 105.611 1.68115 108.588V109.841C1.68115 110.311 1.85239 110.938 2.19486 111.408C2.19486 111.721 2.3661 112.034 2.53734 112.191L3.05105 112.974C5.44838 115.168 9.55808 114.228 12.2979 113.131C14.524 112.191 16.5788 110.938 18.6336 109.684L26.1681 105.297C26.853 104.827 27.7091 104.357 28.5654 103.887C28.5654 106.081 26.6818 109.058 25.9968 111.094L25.3119 112.818C24.4556 114.855 23.9421 117.048 23.9421 119.241C23.9421 120.965 25.1408 122.218 26.1681 122.845C28.2229 124.098 31.134 124.255 32.5038 122.375C33.8739 120.338 34.2163 117.988 34.2163 115.324C34.2163 114.228 34.045 113.288 34.045 112.348C34.045 109.684 34.3875 106.707 35.4149 104.514C36.6136 102.007 37.1274 99.0307 35.7573 96.5238C35.2437 95.5838 35.0724 94.8005 35.0724 93.7037C35.0724 92.4503 35.2437 91.0402 35.4149 89.9436C35.9287 87.1234 36.4424 84.1468 37.2985 81.4833C37.4698 80.8566 37.8123 80.3865 37.8123 79.9166H39.0108C39.0108 80.7 39.3533 81.7966 39.5246 82.7367C39.5246 83.05 39.6959 83.3634 39.6959 83.6767C40.0383 86.9669 40.2095 88.5335 40.552 91.8236C40.552 92.607 40.552 93.3904 40.552 94.0171C40.7233 94.8005 40.7233 95.5838 40.7233 96.3672C40.7233 96.8371 40.2095 97.1505 40.0383 97.6206C39.1822 100.441 40.3809 103.731 43.6344 103.731C46.8878 103.731 47.9153 103.261 50.8263 102.947C54.7647 102.321 58.8745 103.261 62.4705 104.201C63.6692 104.514 65.8952 104.984 67.0938 104.827C67.7787 104.827 67.6076 104.827 68.1213 104.671C70.0049 103.887 70.6898 100.597 67.4362 98.7172C66.9227 98.4039 66.4089 98.2473 66.0664 98.0905C65.3814 97.6206 64.6965 95.7405 60.5868 95.7405C58.8745 95.7405 57.1621 95.8971 55.621 96.0538C53.9086 96.2105 50.8263 96.8372 49.114 96.8372C48.2577 96.9939 45.3466 97.4638 45.3466 95.4272C45.3466 93.2336 45.8605 91.3536 46.2029 89.3169L47.9153 81.4833C48.0865 80.8566 48.9426 80.7 49.4564 79.9166C49.6276 79.6032 49.7989 79.2899 49.9701 78.9765C50.4838 78.6632 50.4838 78.9765 50.8263 78.3499C51.6825 77.0965 52.1961 77.7232 52.1961 76.3131C52.1961 74.7463 52.025 72.7096 52.5386 71.613C53.2236 70.673 54.0797 70.673 54.936 70.0463C55.9634 68.9495 54.7647 67.3828 54.7647 67.0695C54.7647 66.5994 55.4496 65.9727 55.621 65.6594C56.4771 64.5627 58.0183 62.3692 58.0183 60.9592C58.0183 59.8625 57.1621 57.5123 56.8197 56.2589L55.9634 52.969C55.9634 52.6556 55.7921 52.1856 55.7921 51.7156C56.3059 51.5589 56.8197 51.0889 57.3332 50.7756C57.6758 50.6189 57.6758 50.4621 58.0183 50.4621C58.0183 49.5221 56.4771 47.4854 56.1345 46.702L55.1072 44.8219C54.936 44.6652 54.5935 44.5086 54.5935 44.3519C54.4223 44.1953 54.2511 43.5686 53.9086 43.0985C53.566 42.6285 52.5386 41.5318 52.3675 40.9051C53.2236 39.6518 53.9086 39.3385 54.936 36.8317C55.1072 36.3616 55.2785 35.735 55.621 35.265C55.9634 34.9516 56.3059 34.7949 56.4771 34.6383C56.9908 34.325 57.847 33.8549 58.0183 33.2282C58.1895 32.6015 58.3607 29.4681 58.3607 28.998C58.3607 27.9014 58.1895 26.9612 58.1895 26.0212C58.1895 25.3945 58.0183 25.0812 58.0183 24.6112C57.3332 21.7912 58.1895 23.5145 58.5319 21.1645C58.7032 19.7544 58.0183 19.4411 59.5594 19.4411C59.3881 17.2477 57.5046 15.9943 55.9634 15.2109C55.1072 14.7408 55.1072 14.2708 54.7647 12.8608C54.2511 11.6074 53.3948 8.78731 51.6825 8.78731C50.655 8.78731 49.4564 9.41401 48.4291 9.88403C46.7166 10.5107 44.833 11.6074 43.8055 9.57068C42.9494 8.16063 42.7782 6.90726 40.7233 7.69061C39.0108 8.47398 38.1547 8.63065 37.4698 6.5939C37.1274 5.49721 37.1274 4.24381 36.956 2.99045C36.7849 2.20709 36.956 0.327017 35.9287 0.0136719H35.4149C34.9012 0.170344 34.2163 0.483689 33.3601 1.11038C32.5038 1.73707 31.134 2.67709 30.449 3.46046C28.2229 5.65387 26.853 7.53394 25.4832 10.5107C23.9421 13.4874 23.2571 16.7776 22.9146 20.0678C22.7434 22.5745 22.4008 25.0812 21.7159 27.5879C21.3735 29.4681 20.6886 30.7215 19.6611 32.2882C18.9761 33.5416 17.6062 35.265 17.6062 37.1451ZM25.3119 67.5394C21.2021 73.3362 16.4076 75.0597 10.5855 73.0229C14.1815 73.6496 19.4899 69.7329 17.4351 62.9959C19.6611 64.0926 22.5722 64.8761 24.4556 63.6227C24.4556 64.5627 24.1132 65.6594 24.1132 66.7561L25.3119 67.5394Z" fill="black"/>
<path fill-rule="evenodd" clip-rule="evenodd" d="M25.483 13.9582C29.9352 14.5849 30.9627 19.9117 27.3667 19.9117C25.8254 20.0684 25.3119 19.4418 24.2844 18.8151C24.2844 19.4418 24.1132 20.5384 24.1132 21.0085C24.7981 22.4186 26.168 22.2619 27.8804 22.5752C30.6201 22.8884 30.7914 26.9619 27.1955 28.0587C25.1405 28.6854 24.7981 27.9019 23.2569 27.2753L22.7433 29.1553C23.2569 29.312 23.0857 29.9387 24.2844 30.2521C24.9694 30.5654 25.8254 30.5654 26.5104 30.7221C27.8804 31.0355 29.2503 32.2889 28.394 33.8556C27.0241 36.6757 20.8597 35.109 20.5172 34.0122C20.1746 34.3257 19.661 35.4223 19.4897 35.8924C19.1473 36.989 19.1473 37.3024 19.4897 38.2424C21.3733 38.2424 21.7159 34.1689 24.4556 36.989C25.3119 37.9291 25.3119 39.0257 24.6269 40.1224C23.942 41.0624 23.4282 41.0624 21.887 41.3757C21.3733 42.4725 20.6883 42.9426 20.6883 44.5093C20.8597 44.5093 21.3733 44.9793 21.7159 44.8226C21.7159 44.8226 22.4008 44.1959 22.5719 44.0392C22.9145 43.7259 23.0857 43.5693 23.2569 43.2559C24.4556 41.8458 26.5104 40.5924 28.2228 39.9657C29.5927 39.3391 29.5927 39.4957 30.449 40.2791C35.0723 44.1959 42.778 45.6059 48.0864 42.4725C49.97 41.5325 49.7987 41.5325 50.9974 40.4357C52.3672 39.1823 51.5111 40.1224 52.5386 38.7124C53.3948 37.7724 54.0797 36.5191 54.0797 35.2657C52.881 35.2657 51.8537 35.579 51.1686 36.3623C50.3124 36.989 49.7987 37.6157 48.7713 38.0858C44.6616 40.2791 39.6957 40.4357 36.0998 37.6157C35.2435 36.989 34.5586 36.3623 34.045 35.2657C33.8736 34.639 33.1887 33.0722 33.0175 32.2889C34.2161 32.6022 35.7573 33.8556 38.6683 34.639C40.8944 35.2657 43.2917 35.7357 45.6891 35.7357C48.9426 35.7357 53.2235 35.579 55.7921 33.8556C56.8194 33.0722 56.9908 32.2889 56.9908 30.8788C57.3332 28.372 56.9908 25.8653 56.477 23.5151C55.7921 21.1651 53.0524 13.9582 51.8537 12.0781C49.7987 9.258 48.2576 12.2348 46.0315 11.9214C45.8602 12.2348 45.1753 12.2348 44.8328 12.3914C44.8328 12.8615 47.5727 16.6217 47.5727 17.405C46.8877 16.7783 45.8602 15.5249 45.1753 14.4282C44.8328 13.8015 42.9493 11.4514 42.9493 11.2947C42.6068 11.1381 41.9218 10.3547 41.5793 10.198C41.0655 9.8847 40.0382 9.72801 39.3533 10.0414C38.3258 10.5114 36.0998 12.7048 35.2435 13.4881C34.045 14.7415 33.5312 15.3682 32.5038 16.935C32.3325 17.2484 32.1614 17.405 31.8188 17.7183C31.99 15.995 34.216 13.6448 35.2435 12.3914C36.0998 11.6081 37.4696 10.6681 37.9834 9.8847C37.4696 9.10133 36.7847 8.78799 36.4422 7.84795C35.7573 6.4379 35.7573 4.55783 35.0723 3.30445C34.7299 2.83444 34.3874 2.99111 33.8736 3.30445C32.8463 3.61781 32.3325 4.24448 31.6476 4.87117L28.0516 8.78799C27.1955 9.8847 25.8254 12.3914 25.483 13.9582Z" fill="#80BD25"/>
<path fill-rule="evenodd" clip-rule="evenodd" d="M26.6818 49.3656C26.6818 49.0523 26.6818 48.7389 26.6818 48.4256C26.853 48.8955 26.853 49.8356 27.1956 50.3056V49.679C27.538 49.9923 27.7092 50.9323 27.8805 51.4023C28.2229 51.8724 28.3943 52.499 28.7367 53.1257C29.0792 53.909 29.2503 53.5958 29.5928 54.5358C29.9353 55.3191 29.7641 55.9458 29.7641 56.7292C30.449 57.1992 31.4764 58.6093 31.134 60.0192C30.7915 61.116 29.9353 62.2127 28.7367 62.3693C28.5654 62.5261 28.0517 62.6827 27.538 62.996C27.538 66.1296 27.1956 65.6595 28.7367 66.4428C33.7025 68.9497 43.9768 68.7929 49.4564 67.5396C50.4838 67.2262 51.1687 66.9129 52.1961 66.5995C52.7099 66.4428 52.5385 65.6595 52.3674 64.7195L52.025 54.8492C51.8536 53.7524 51.6825 51.7156 51.8536 50.7756L52.025 51.8724C53.0523 51.8724 55.1072 50.4623 55.9634 50.1489C55.9634 49.2089 55.2785 48.2689 54.9359 47.6422C54.5935 47.0155 54.0798 46.0754 53.7372 45.6054C53.2236 44.8221 52.7099 44.352 52.3674 43.5687C51.8536 42.7854 52.1961 43.0986 51.6826 42.6288C51.34 42.3154 51.1687 42.0021 50.8263 41.6887C49.6276 42.0021 47.9152 43.2554 47.4014 44.0387C46.0316 45.9187 46.8879 44.9787 45.518 46.5454C45.1755 46.8589 44.8331 47.0155 44.6617 47.3288C44.1479 48.1121 42.6069 48.7389 41.4082 49.0523C39.8671 49.2089 38.3259 48.8955 37.1273 48.4256C35.4148 47.4854 32.1613 43.7253 30.7915 42.1587C30.6203 42.0021 29.5928 41.0619 29.4216 40.9053C28.3943 40.4354 24.2845 43.412 23.257 44.6654C22.5721 45.6054 23.0858 45.6054 23.0858 46.5454C23.257 47.1721 23.0858 48.1121 23.0858 48.8955C23.7707 49.0523 24.2845 48.8955 24.9694 49.0523C25.6543 49.2089 25.9969 49.5222 26.5105 49.679L26.6818 49.3656Z" fill="#E40013"/>
<path fill-rule="evenodd" clip-rule="evenodd" d="M27.538 71.77C27.538 72.3967 28.5654 76.4701 28.7366 77.4101C29.7641 81.7969 30.6202 87.7506 30.9628 92.2941C31.1339 93.234 31.3053 94.644 31.1339 95.5842C30.7915 95.7408 30.6202 95.8975 30.1066 96.2109C23.5995 99.031 11.2704 96.5242 9.04434 99.971C8.8731 100.284 8.8731 100.598 8.8731 100.911C8.8731 101.224 8.8731 101.224 9.04434 101.224C10.4142 102.164 16.0652 100.284 17.6062 99.8144C18.9761 99.5009 20.5172 99.1877 21.8872 98.8742C22.7433 98.8742 23.4282 98.7176 24.2844 98.7176C24.6269 98.7176 25.8256 98.8742 26.1682 99.031C26.5106 99.1877 26.1682 99.031 26.5106 99.1877L25.9968 99.3443C25.4831 99.1877 19.8322 100.598 18.8049 100.754C16.4076 101.381 14.1814 101.851 11.6129 102.321C9.04434 102.791 6.98948 103.261 5.2771 104.671C3.73598 105.925 3.39349 110.468 4.24969 111.408C8.18814 112.348 15.0376 108.588 17.9486 107.178C20.346 106.081 28.2228 101.694 30.1066 101.224L30.9628 100.911C31.1339 107.805 23.4282 117.048 27.3669 121.122C28.5654 122.375 30.2778 121.435 30.9628 120.495C32.5038 118.302 32.3326 114.855 32.6751 111.721C32.8463 107.648 33.1889 106.865 34.2162 102.948C35.9286 96.0541 33.8738 97.621 34.045 94.1741C34.2162 91.0407 34.5588 88.0639 35.2437 84.9305C35.5861 83.207 36.7848 77.8802 37.6409 76.9402C37.6409 77.7235 37.2985 78.5069 37.2985 79.2902C39.5245 79.2902 43.2919 76.9402 44.833 76.0002C46.2029 74.9035 49.4564 71.1433 49.4564 69.7332V69.4199C45.6891 69.7332 36.4424 70.83 32.8463 70.5166C31.1339 70.5166 29.2503 70.0466 27.538 69.89C27.538 70.6733 27.538 71.1433 27.538 71.77Z" fill="#80BD25"/>
<path fill-rule="evenodd" clip-rule="evenodd" d="M26.8526 71.1436C26.5101 71.4568 27.5376 73.337 25.9966 73.9637C25.1403 74.4336 23.7704 73.9637 22.5717 73.9637C23.5992 74.4336 24.1129 74.1203 24.4553 75.2171C23.9416 75.5304 23.5992 75.687 22.7431 75.5304C22.2293 75.3737 21.7155 75.0603 21.2018 75.5304C20.6881 75.8437 20.1745 77.4105 18.6333 76.4704C18.2909 76.1571 17.7771 75.5304 17.2634 76.0005C16.7497 76.1571 16.5785 76.7838 15.8935 76.7838C15.0374 76.7838 14.6949 75.3737 13.1536 75.687C12.9824 76.1571 12.9824 76.4704 12.64 76.9405C11.4413 76.7838 11.4413 76.0005 11.0988 75.5304L10.9276 75.3737C10.5851 75.687 10.9276 75.687 10.5851 75.8437C10.4139 75.8437 10.0714 75.8437 9.90018 75.8437C9.38647 75.8437 8.70152 73.807 8.18781 72.8669L7.84535 72.5536C2.36574 69.4201 4.59183 60.1765 10.4139 59.5499C15.0374 59.2365 17.2634 64.0934 15.7222 68.01C15.2084 69.4201 13.4962 70.9869 11.955 71.4568C7.84533 72.7103 4.59183 67.6967 6.98915 63.7799C9.38647 59.5499 14.866 60.9598 14.866 65.5034C14.866 67.5401 13.4962 69.2634 11.955 69.8901C9.72895 70.6735 7.84535 69.1068 7.6741 67.2266C7.33162 64.8767 8.70152 63.1534 10.7564 62.9966C13.1536 62.8399 14.0099 65.3468 12.8112 67.2266C11.4413 69.1068 8.53028 68.4801 9.044 65.9734C9.21523 65.0334 10.0714 64.0934 11.0988 64.7201C12.4687 65.19 11.7838 66.9134 10.9276 66.5999C11.2701 66.2866 11.6126 66.4433 11.6126 65.9734C11.4413 65.5034 11.2701 65.19 10.9276 65.0334C9.90018 64.7201 9.38647 65.5034 9.38647 66.4433C9.38647 68.3234 11.7838 68.1668 12.4687 66.7567C13.1536 65.5034 12.8112 63.1534 10.4139 63.4666C7.1604 63.9367 7.33162 70.3602 11.4413 69.4201C14.866 68.6367 15.0374 63.6233 12.64 62.2132C9.90018 60.6465 6.47544 63.31 6.64667 67.07C7.1604 72.8669 14.6949 72.2402 15.7222 66.4433C16.236 62.9966 13.8387 59.7065 10.4139 60.1765C5.96173 60.6465 3.39316 67.07 6.81791 70.9869C7.50286 71.9269 9.38647 72.7103 11.0988 72.7103C15.7222 72.5536 18.8044 67.07 16.4071 62.2132C15.7222 60.9598 14.866 59.8632 13.4962 59.2365C10.0714 57.8264 6.47544 59.7065 5.10554 61.5865C2.87945 64.0934 2.70821 67.07 4.07811 70.5168C5.44802 73.6503 7.1604 75.0603 9.55772 76.7838C11.4413 78.1939 15.3798 79.4473 18.1195 80.0739C21.2018 80.7006 25.4828 81.1707 28.7363 80.8572C28.7363 79.4472 28.0513 77.4105 27.8802 76.0005C27.5376 74.4336 27.1952 72.7103 26.8526 71.1436Z" fill="#80B627"/>
<path fill-rule="evenodd" clip-rule="evenodd" d="M40.2095 80.3864C40.2095 80.8565 40.8944 85.3998 41.0657 86.1832C41.2368 88.2199 41.4082 90.2567 41.5793 92.2935C41.9217 95.5836 41.9217 95.2703 41.2368 98.247C40.723 100.44 41.7506 101.85 43.8054 102.32C47.059 102.79 48.4287 100.597 55.9633 101.694C58.3606 102.007 65.21 103.887 67.2649 103.417C67.7786 103.26 68.1211 103.26 68.1211 102.634C68.1211 102.007 68.1211 101.537 67.95 101.067C66.4087 97.777 57.1619 98.0904 54.0797 98.247C51.8536 98.247 46.8877 98.5603 45.1752 97.1504C44.3191 96.5237 44.3191 95.897 44.4903 94.6436C44.6617 90.7267 45.689 86.9665 46.3739 83.0499C46.5451 82.2665 46.8877 81.0131 46.7165 80.073C46.3739 78.663 47.059 78.193 46.8877 77.253C47.2302 75.6861 46.2027 76.6263 45.689 77.0962C43.9767 78.3496 43.2916 79.4464 40.2095 79.9163V80.3864Z" fill="#80BD25"/>
<path fill-rule="evenodd" clip-rule="evenodd" d="M24.2842 56.8857C25.3118 55.1624 28.2229 56.1024 29.0789 55.9457C29.7639 55.0056 28.7364 53.9091 28.2229 53.5957C27.1953 52.9691 26.5104 52.8123 25.1404 52.6557C25.8255 52.1856 26.8528 52.499 27.7091 52.499C27.7091 50.6189 25.4829 49.9922 23.4281 49.9922C18.291 50.149 15.7225 56.8857 18.4622 61.2726C18.6334 61.586 18.8048 62.0559 19.1472 62.3693C19.4897 62.8393 21.202 64.0927 22.7432 63.466C22.9144 63.3093 23.5993 62.9961 23.7706 62.8393C24.798 61.8993 24.9693 62.2127 26.5104 62.0559C28.0515 62.0559 30.6201 61.8993 30.6201 59.3926C30.6201 57.1992 28.7364 56.5724 27.0242 56.259C25.6542 56.1024 25.3118 56.4157 24.2842 56.8857Z" fill="#FCFCFE"/>
<path fill-rule="evenodd" clip-rule="evenodd" d="M34.3877 19.1279C33.874 20.8513 33.5316 22.5747 34.3877 24.2981C36.6138 28.6849 44.3196 27.7449 45.1757 22.2613C45.5181 18.9713 43.6346 17.5612 43.2921 16.7778C41.2372 16.6211 40.2098 16.4644 38.155 16.9345C36.6138 17.4045 35.0727 18.1879 34.3877 19.1279Z" fill="#FCFCFE"/>
<path fill-rule="evenodd" clip-rule="evenodd" d="M13.1543 75.8439C13.1543 76.314 13.1543 76.6273 12.6406 76.9406V77.0974C11.4419 76.9406 11.4419 76.314 10.9282 75.6873C10.9282 75.6873 10.9282 75.8439 10.5857 76.0006C10.4145 76.0006 10.072 76.1572 9.72951 76.0006C9.38705 75.8439 8.35962 73.4939 8.01714 73.0238L7.50342 72.3971C14.353 75.8439 20.6886 74.9039 25.3121 68.4803C25.4833 68.167 25.6545 67.697 26.1683 67.5403C26.1683 67.3837 26.3396 67.5403 26.3396 67.5403C26.682 68.9503 26.682 70.517 27.0246 71.927C27.0246 72.5537 27.1957 73.6505 26.1683 74.1205C25.4833 74.4339 24.7984 74.2772 24.1135 74.2772C24.2846 74.4339 24.456 74.5905 24.6272 75.2172L24.456 75.3739C23.7711 75.6873 23.5997 75.8439 22.7435 75.6873C22.2299 75.5305 21.7161 75.2172 21.2024 75.6873C20.3462 76.1572 20.175 77.5673 18.4626 76.6273C18.1201 76.314 17.7777 75.8439 17.264 76.1572C16.7502 76.4706 16.7502 77.0974 15.894 76.9406C15.0379 76.9406 14.6954 75.6873 13.1543 75.8439Z" fill="#62A531"/>
<path fill-rule="evenodd" clip-rule="evenodd" d="M43.9768 56.4161V56.2595C43.9768 56.4161 43.9768 56.2595 43.8057 56.2595C43.6343 55.9461 43.6343 55.6328 42.7782 55.476C41.7508 55.3194 41.2371 55.476 41.2371 55.0061C41.7508 54.6926 43.2919 54.8494 43.9768 54.8494L44.6618 52.6559C43.6343 52.8127 42.607 52.8126 41.5795 52.8126C40.5522 52.8126 39.8672 53.1259 39.5246 53.9093C39.1821 54.536 39.1821 55.7894 39.6959 56.4161C40.2097 57.3561 41.5795 56.7294 42.0932 57.0428C41.922 57.5128 41.7508 57.3561 40.7233 57.3561C40.2097 57.3561 39.6959 57.3561 39.1821 57.3561L38.1548 59.2363C39.1821 59.2363 41.2371 59.2363 42.2646 59.0795C43.2919 58.9228 43.9768 58.1395 43.9768 56.8861C44.3194 57.1995 44.3194 57.6696 44.4906 57.9828C44.833 58.2961 45.1755 58.6096 45.5181 58.7662C45.8605 59.0795 46.203 59.0795 46.8879 59.0795L47.9153 58.9228C48.429 58.7662 48.2578 58.6096 48.2578 57.1995C47.4017 57.1995 46.3742 57.3561 46.0317 56.5728C45.8605 55.7894 46.3742 54.8494 46.8879 54.536C47.9153 54.2227 47.9153 55.0061 48.7715 53.7527C49.114 53.2826 49.7989 52.6559 49.7989 52.0293C49.114 52.0293 48.2578 52.1859 47.5728 52.3426C46.5454 52.3426 46.203 52.3426 45.5181 52.8126C44.6618 53.4394 43.9768 54.6926 43.9768 56.4161Z" fill="#AB1D24"/>
<path fill-rule="evenodd" clip-rule="evenodd" d="M52.1962 67.3835C52.7099 68.167 53.3948 66.9136 53.7372 66.6001C54.0797 65.9734 54.4221 65.5036 54.9359 64.8769C55.6208 63.9369 56.8195 62.0568 56.8195 60.8034C56.6483 59.08 54.7647 52.813 54.0797 51.873C53.566 51.873 52.5386 52.343 52.3673 52.6564C52.0248 52.9697 52.1962 54.6932 52.1962 55.1631C52.3673 56.8866 52.8811 57.8266 53.566 59.2367C54.7647 61.9001 53.9086 60.96 53.0523 62.9968C52.5386 64.4069 53.2235 66.1302 52.8811 66.7569C52.7099 67.2268 52.3673 67.0702 52.1962 67.3835Z" fill="#80BD25"/>
<path fill-rule="evenodd" clip-rule="evenodd" d="M48.6001 37.1445C46.8878 36.3611 42.9492 36.0479 40.8944 35.7344C38.4971 35.2645 34.5586 33.541 34.0449 33.541C34.5586 39.6513 47.4014 40.4347 48.6001 37.1445Z" fill="#D81218"/>
<path fill-rule="evenodd" clip-rule="evenodd" d="M32.8462 58.4521C32.8462 59.7054 32.8462 59.3921 35.586 59.3921C39.5244 59.5488 40.2095 55.4753 37.9833 53.5953C37.2984 53.1253 36.0997 52.6553 34.9011 52.812C34.7298 52.812 33.0175 54.3787 33.0175 54.692C32.8462 54.8488 32.8462 57.982 32.8462 58.4521Z" fill="#AB1D24"/>
<path fill-rule="evenodd" clip-rule="evenodd" d="M20.5171 34.0111C20.8595 35.1078 27.0241 36.6746 28.394 33.8544C29.2502 32.2878 27.8804 31.0344 26.5104 30.721C25.8256 30.5644 24.9693 30.5644 24.2844 30.2511C23.0857 29.9377 23.2569 29.3109 22.7431 29.1543C22.4007 30.0943 22.2296 30.8778 21.7158 31.6611C21.3733 32.4445 20.6884 33.3844 20.5171 34.0111Z" fill="#F0E800"/>
<path fill-rule="evenodd" clip-rule="evenodd" d="M23.2568 27.2748C24.7981 27.9015 25.1406 28.6847 27.1954 28.0581C30.7913 26.9615 30.6201 22.8879 27.8803 22.5747C26.1679 22.2612 24.7981 22.4179 24.1131 21.0078C23.9419 21.4779 23.9419 23.5147 23.7706 24.298C23.5994 25.238 23.4281 26.3348 23.2568 27.2748Z" fill="#DA0075"/>
<path fill-rule="evenodd" clip-rule="evenodd" d="M52.1964 66.5993C51.1688 66.9128 50.4839 67.226 49.4564 67.5395C43.9769 68.7928 33.7026 68.9495 28.7368 66.4427C27.1956 65.6593 27.5381 66.1294 27.5381 62.9958C28.0519 62.6826 28.5655 62.5258 28.7368 62.3691C28.0519 62.5258 25.997 62.5258 25.6546 62.6826C25.1408 63.3093 24.7983 65.5027 24.7983 66.4427C27.1956 68.166 35.415 68.9494 38.4973 68.9494C41.922 69.1062 46.203 68.9495 49.4564 68.0094C50.3127 67.6961 51.8538 67.226 52.1964 66.5993Z" fill="#A51F25"/>
<path fill-rule="evenodd" clip-rule="evenodd" d="M4.24951 111.408C4.59199 112.505 6.13313 112.818 7.50303 112.662C12.1264 112.035 20.0034 107.335 24.113 104.985L28.7365 102.321C28.9077 102.165 29.2501 102.008 29.4215 101.851C29.7639 101.695 29.935 101.538 30.1064 101.225C28.2228 101.695 20.3458 106.081 17.9484 107.178C15.0374 108.588 8.18798 112.348 4.24951 111.408Z" fill="#62A531"/>
<path fill-rule="evenodd" clip-rule="evenodd" d="M27.5381 71.7704C27.5381 71.1437 27.5381 70.6736 27.5381 69.8903C29.2505 70.0469 31.1342 70.517 32.8464 70.517C36.4424 70.8303 45.6893 69.7336 49.4564 69.4202V69.7336C49.6278 69.4204 49.6278 68.7936 49.6278 68.4802C47.7441 68.6369 45.8605 69.1069 44.1481 69.2636C42.0932 69.4202 40.0383 69.4202 37.9837 69.4202C35.0726 69.2636 32.3327 69.1069 29.5929 68.4802C28.908 68.3236 27.5381 67.8535 27.0244 67.8535C27.0244 68.1669 27.3669 71.3004 27.5381 71.7704Z" fill="#62A531"/>
<path fill-rule="evenodd" clip-rule="evenodd" d="M33.1888 59.0799C33.5313 59.2365 34.5588 59.2365 34.9012 59.0799V54.6929C36.2713 54.5363 37.4698 55.0063 37.2986 56.2597C37.2986 56.7297 36.9562 57.1997 36.6137 57.3564C36.0999 57.6698 35.7575 57.513 35.2437 57.6698L35.0726 59.0799C39.3534 60.0199 40.5521 53.9095 36.4423 53.1262C35.9287 52.9695 35.0726 52.8129 34.73 53.1262C34.3875 53.4396 34.0451 53.7529 33.7026 54.0663C33.1888 54.5363 33.1888 54.3796 33.1888 55.3196C33.1888 56.103 33.0177 58.6098 33.1888 59.0799Z" fill="#FFFEFE"/>
<path fill-rule="evenodd" clip-rule="evenodd" d="M24.2847 18.8139C25.3121 19.4406 25.8259 20.0672 27.3671 19.9106C30.9631 19.9106 29.9356 14.5837 25.4834 13.957C24.9697 15.6804 24.7985 16.9338 24.2847 18.8139Z" fill="#008DCF"/>
<path fill-rule="evenodd" clip-rule="evenodd" d="M49.6277 77.2531V78.5064C50.4839 78.3498 50.3125 77.253 50.655 76.4696H50.8263C50.9976 76.4696 50.8263 76.4696 51.1688 76.6264C52.0249 75.8431 51.34 73.6495 51.8537 72.0829C51.8537 71.4562 52.3675 71.1429 52.3675 70.8295C52.3675 70.0462 51.6825 70.3596 51.5112 70.6729C51.1688 71.1429 50.9976 71.4562 50.8263 71.7696C50.1415 72.7096 48.0865 75.2163 47.9153 75.9997C47.5728 76.7831 47.4016 77.8797 47.2304 78.9765C47.059 81.1699 48.2577 80.6998 49.1139 78.5064C49.2852 78.0365 49.4564 77.5664 49.6277 77.2531Z" fill="#FFFEFE"/>
<path fill-rule="evenodd" clip-rule="evenodd" d="M42.2643 56.8854L42.093 57.5121C41.5794 57.6687 40.0381 57.5121 39.3532 57.5121L38.4971 58.9222C40.2094 59.0788 42.7781 59.3922 43.6342 57.9822C43.9768 57.1988 43.8054 56.102 43.1205 55.7888C42.4355 55.3187 40.8943 55.9454 41.0657 54.8486C41.5794 54.3787 42.9492 54.5353 43.8054 54.5353L44.3192 52.9688C43.2916 52.9688 42.4355 52.9688 41.5794 52.9688C38.8395 53.1254 39.3532 55.7888 39.867 56.4155C40.5519 57.042 41.4081 56.5721 42.2643 56.8854Z" fill="#FFFEFE"/>
<path fill-rule="evenodd" clip-rule="evenodd" d="M33.5316 19.597C33.7028 19.597 33.7028 19.4404 33.5316 20.2237C33.3604 21.0071 33.3604 21.9471 33.3604 22.7304C33.5316 23.6706 33.874 24.6106 34.2165 25.2373C36.7851 29.3107 43.977 28.9974 45.3469 24.6106C45.5182 23.8272 45.6894 22.4171 45.3469 21.6338L45.1757 22.2605C44.3195 27.744 36.6137 28.6841 34.3877 24.2971C33.5314 22.5738 33.874 20.8504 34.3877 19.127C34.2165 19.127 34.0452 19.2836 33.874 19.2836L33.7028 19.4404C33.5316 19.597 33.5316 19.4404 33.5316 19.597Z" fill="#62A531"/>
<path fill-rule="evenodd" clip-rule="evenodd" d="M26.6817 49.3664L26.5105 49.6797C25.9967 49.5231 25.6542 49.2098 24.9693 49.053C24.2844 48.8963 23.7706 49.053 23.0857 48.8963C23.0857 48.113 23.2569 47.1731 23.0857 46.5464C23.0857 45.6063 22.5719 45.6063 23.257 44.6663C24.2844 43.4129 28.3939 40.4361 29.4215 40.9062C29.5926 41.0628 30.6201 42.0028 30.7913 42.1596C32.1612 43.7263 35.4148 47.4863 37.1271 48.4263C38.3258 48.8963 39.867 49.2098 41.4081 49.053C42.6067 48.7397 44.1478 48.113 44.6616 47.3296C43.8054 47.6429 42.9491 48.5831 40.7232 48.5831C37.4696 48.7397 35.9286 46.7031 34.0448 44.8229C32.675 43.4129 31.4764 41.8462 30.2777 40.5927C29.5926 40.1228 29.4215 39.9662 28.3939 40.4361C24.798 42.3162 24.9693 42.3162 22.4007 44.9797C21.5445 45.7631 22.0583 45.7631 22.4007 46.8597C22.5719 47.6429 22.5719 48.8963 23.0857 49.053C23.7706 49.3664 24.6269 49.053 26.6817 49.9931V49.3664Z" fill="#CB151D"/>
<path fill-rule="evenodd" clip-rule="evenodd" d="M19.661 50.775C20.0035 50.6183 20.5172 50.305 20.8597 49.9916C21.3735 49.6783 21.8871 49.6783 22.2296 49.365C22.4009 48.2682 22.0584 47.0149 21.5447 46.0749C21.031 45.1349 20.346 44.5082 18.805 44.9781C18.4624 44.9781 18.4624 45.1349 18.2912 45.4482C18.12 45.6049 18.12 45.9183 17.9487 46.2316C17.9487 46.8583 18.2912 47.3283 18.6336 47.7981C18.805 47.9549 18.805 48.1116 18.9761 48.4249C19.3185 49.2082 19.4899 48.7383 19.661 50.775Z" fill="#F9F9F9"/>
<path fill-rule="evenodd" clip-rule="evenodd" d="M47.9154 58.7654L48.0867 57.3553C47.5729 57.3553 45.5181 57.6688 45.8605 55.7886C46.0318 54.3786 46.888 54.3786 48.2578 54.2219C48.4292 54.0653 49.4565 52.4984 49.6277 52.3418C47.2305 52.3418 45.0043 52.3418 44.3194 55.0053C43.977 56.1021 44.3194 57.3553 45.0043 57.9821C45.6893 58.9222 46.5454 58.9222 47.9154 58.7654Z" fill="#FFFEFE"/>
<path fill-rule="evenodd" clip-rule="evenodd" d="M50.6548 97.6205C51.511 97.9339 58.8743 97.9339 60.9291 97.9339C62.1278 97.9339 63.1552 98.2472 64.1825 98.2472C63.4976 94.8003 51.3397 97.3072 50.6548 97.6205Z" fill="#62A531"/>
<path fill-rule="evenodd" clip-rule="evenodd" d="M46.8878 43.7257C45.8603 43.8823 45.8603 44.3523 45.3467 44.8223C43.9767 46.389 41.5794 47.1724 39.3533 46.8591C35.7573 46.2324 35.2436 42.9422 33.0176 42.6289L34.2161 44.3523C37.1272 47.3292 39.6958 49.5226 44.148 46.8591C45.0042 46.389 46.5453 44.979 46.8878 43.7257Z" fill="#CA151D"/>
<path fill-rule="evenodd" clip-rule="evenodd" d="M44.8328 44.3529C43.1205 44.3529 41.9218 44.8228 40.0382 44.6662C38.4972 44.6662 37.2985 44.0395 35.7573 43.8828C36.0998 45.4495 40.2095 47.6429 43.9767 45.2929C44.4904 44.9795 44.6618 44.9795 44.8328 44.3529Z" fill="#619633"/>
<path fill-rule="evenodd" clip-rule="evenodd" d="M9.04443 101.223C9.55814 102.633 11.0993 102.007 12.9829 101.693C14.5241 101.38 15.894 101.067 17.2638 100.753C19.4899 100.283 22.5722 99.6567 24.9695 99.3432C25.1409 99.1867 25.3119 99.1867 25.4833 99.1867C25.6544 99.1867 25.8257 99.1867 25.9968 99.3432L26.5106 99.1867C26.1682 99.0301 26.5106 99.1867 26.1682 99.0301C25.8257 98.8734 24.6271 98.7168 24.2846 98.7168C23.4284 98.7168 22.7435 98.8734 21.8873 98.8734C20.5173 99.1867 18.9763 99.5 17.6062 99.8133C16.0652 100.283 10.4143 102.163 9.04443 101.223Z" fill="#62A531"/>
<path fill-rule="evenodd" clip-rule="evenodd" d="M38.497 19.441C35.757 19.7544 36.4421 23.0445 38.8394 22.8878C41.2367 22.7312 40.5518 18.9711 38.497 19.441Z" fill="#0B0202"/>
<path fill-rule="evenodd" clip-rule="evenodd" d="M34.0449 18.5002C34.7298 18.187 35.2436 17.8737 35.9285 17.4037C36.6135 17.0903 37.2984 16.777 38.1547 16.6204C39.8671 16.1503 41.5793 16.307 43.463 16.6204C42.778 15.8369 39.3533 14.8969 37.8122 15.2103C35.7573 15.367 34.9012 16.9337 34.0449 18.5002Z" fill="#62A531"/>
<path fill-rule="evenodd" clip-rule="evenodd" d="M40.2097 80.3871V79.9172C43.292 79.4471 43.977 78.3505 45.6892 77.0971C46.203 76.627 47.2305 75.687 46.8879 77.2537C47.0591 77.2537 47.0591 77.2537 47.0591 77.2537L47.4016 75.687C45.6892 75.5303 46.0318 76.0003 43.8056 77.4103C42.4358 78.3505 40.381 79.1338 40.0386 79.2905L40.2097 80.0738C40.2097 80.7005 40.0386 79.7605 40.2097 80.2305C40.2097 80.2305 40.2097 80.2305 40.2097 80.3871Z" fill="#62A531"/>
<path fill-rule="evenodd" clip-rule="evenodd" d="M54.0798 67.8521C53.2237 67.8521 53.2237 68.1654 52.5386 68.0087C51.8537 68.0087 51.8537 67.6953 51.3399 67.6953C49.114 68.1654 51.5113 70.6722 53.9086 69.7321C55.2785 69.2622 54.5936 68.4788 54.0798 67.8521Z" fill="#FFFEFE"/>
<path fill-rule="evenodd" clip-rule="evenodd" d="M46.8877 75.0602C48.4288 74.7468 50.8262 71.3001 51.3399 70.0466C50.9973 69.5766 50.6549 69.4199 49.97 69.4199C50.1413 71.1433 47.2303 73.8068 46.8877 75.0602Z" fill="#FFFEFE"/>
<path fill-rule="evenodd" clip-rule="evenodd" d="M55.4497 18.9717C55.4497 19.285 56.4772 21.7917 56.6483 22.2618C58.0183 21.6351 58.0182 20.5385 58.0182 18.9717C56.9909 18.6583 56.1347 18.1883 55.4497 18.9717Z" fill="#FFFEFE"/>
<path fill-rule="evenodd" clip-rule="evenodd" d="M18.1198 62.3684C17.9486 61.2718 16.4074 59.8619 16.7499 56.7283C16.7499 56.2584 17.0923 55.1616 16.9212 54.8483C16.4074 54.6917 16.4074 55.005 16.2362 55.3182C15.3801 57.0417 15.7225 59.2351 16.7499 60.8019C16.9212 61.1153 17.0923 61.2718 17.2637 61.5851C17.6061 62.0551 17.4349 62.2118 18.1198 62.3684Z" fill="#FCFCFE"/>
<path fill-rule="evenodd" clip-rule="evenodd" d="M55.4495 18.9715C56.1344 18.1881 56.9907 18.6582 58.018 18.9715C57.6756 18.0315 57.3331 17.5614 56.8193 17.0913C56.3056 16.778 55.4495 16.308 54.5933 16.4647C54.5933 17.2481 55.1069 18.5014 55.4495 18.9715Z" fill="#619633"/>
<path fill-rule="evenodd" clip-rule="evenodd" d="M46.0315 11.9216L43.8055 12.235C43.463 11.6083 43.6342 11.6083 42.9492 11.2949C42.9492 11.4516 44.8328 13.8016 45.1754 14.4283C45.8603 15.5251 46.8878 16.7785 47.5728 17.4051C47.5728 16.6217 44.8328 12.8616 44.8328 12.3916C45.1754 12.235 45.8603 12.235 46.0315 11.9216Z" fill="#2B3F20"/>
<path fill-rule="evenodd" clip-rule="evenodd" d="M35.0723 57.3547C36.271 57.5113 37.1272 57.198 37.1272 56.1014C37.1272 55.1614 36.271 54.6913 35.2436 54.8481L35.0723 57.3547Z" fill="#E40013"/>
<path fill-rule="evenodd" clip-rule="evenodd" d="M34.0451 18.5008C34.0451 18.8142 33.5312 19.1275 33.3602 19.2841C33.1888 19.4409 32.675 20.0675 32.5039 20.2243C32.8464 19.9108 33.1888 19.7542 33.5312 19.5976C33.5312 19.4409 33.5313 19.5975 33.7026 19.4409L33.8737 19.2841C34.0451 19.2841 34.2161 19.1275 34.3875 19.1275C35.0724 18.1875 36.6137 17.4041 38.1547 16.9342C40.2096 16.4641 41.237 16.6209 43.2918 16.7776L44.3191 16.9342L43.463 16.6209C41.5794 16.3075 39.8671 16.1508 38.1547 16.6209C37.2986 16.7776 36.6137 17.0908 35.9285 17.4041C35.2436 17.8741 34.7299 18.1875 34.0451 18.5008Z" fill="#355125"/>
<path fill-rule="evenodd" clip-rule="evenodd" d="M47.915 29.311C47.915 30.0944 47.915 30.4077 48.5999 30.5645C49.2848 30.8778 49.9699 30.5645 50.1411 30.0944C50.6548 28.6843 48.2575 28.2143 47.915 29.311Z" fill="#0E1908"/>
<path fill-rule="evenodd" clip-rule="evenodd" d="M17.0928 53.1264L17.7777 53.2832L18.8051 51.7165C19.1476 51.0898 19.49 50.1496 18.9764 49.6797C18.6339 49.8363 18.4626 49.993 18.2915 50.3064C18.1201 50.463 17.949 50.933 17.949 51.2464C17.6066 51.8731 17.0928 52.1864 17.0928 53.1264Z" fill="#C9161E"/>
<path fill-rule="evenodd" clip-rule="evenodd" d="M55.4496 28.0588C54.0797 28.3722 54.4222 29.9389 55.6209 29.4688C56.8196 29.1556 56.6483 27.7455 55.4496 28.0588Z" fill="#121A09"/>
<path d="M69.7837 42.7518V23.5117L77.0405 16.2207V42.7518H69.7837ZM78.4106 36.1696C78.4106 36.2034 78.4782 36.2202 78.6136 36.2202C78.7828 36.2202 78.9857 36.2034 79.2226 36.1696C79.4932 36.1696 79.7977 36.1696 80.136 36.1696C80.5081 36.1696 80.931 36.1696 81.4047 36.1696C83.0962 36.1696 84.517 35.5283 85.6673 34.2457C86.8175 32.963 87.4096 31.4948 87.4434 29.8407C87.4772 28.0179 86.8175 26.4484 85.4643 25.1321C84.1112 23.8155 82.4871 23.1573 80.5927 23.1573C80.4236 23.1573 80.2375 23.1573 80.0344 23.1573C79.8653 23.1573 79.6961 23.1573 79.527 23.1573C79.324 23.1573 79.1042 23.1573 78.8672 23.1573C78.6643 23.1573 78.4614 23.1573 78.2584 23.1573C77.9201 23.191 77.6326 23.2079 77.3957 23.2079C77.1589 23.2079 77.0405 23.2079 77.0405 23.2079L77.0912 16.2207C77.0912 16.2545 77.1421 16.2714 77.2434 16.2714C77.345 16.2714 77.4972 16.2714 77.7001 16.2714C77.937 16.3052 78.2414 16.322 78.6136 16.322C79.0194 16.322 79.5101 16.322 80.0853 16.322C84.0096 16.322 87.3927 17.6216 90.2344 20.2207C93.11 22.8198 94.5141 26.0264 94.4464 29.8407C94.4125 33.3173 93.2115 36.3385 90.8433 38.9038C88.4752 41.4691 85.4643 42.7518 81.8105 42.7518C81.6415 42.7518 81.4386 42.7518 81.2016 42.7518C80.9986 42.7518 80.7957 42.7518 80.5927 42.7518C80.0514 42.7518 79.5438 42.7518 79.0704 42.7518C78.6304 42.7518 78.4106 42.7518 78.4106 42.7518V36.1696ZM117.459 16.2207C117.493 16.322 117.51 17.5372 117.51 19.8661C117.51 22.1616 117.51 24.6932 117.51 27.461C117.51 28.4063 117.493 29.3344 117.459 30.2459C117.459 31.1572 117.459 32.0348 117.459 32.8786C117.425 35.7478 116.342 38.1781 114.211 40.1696C112.08 42.1612 109.559 43.1568 106.65 43.1568C103.774 43.1568 101.288 42.1612 99.1903 40.1696C97.0926 38.1781 96.0441 35.7478 96.0441 32.8786C96.0441 32.406 96.0441 31.8998 96.0441 31.3597C96.0441 30.8197 96.0441 30.2794 96.0441 29.7394C96.0441 28.1868 96.0441 26.7691 96.0441 25.4864C96.0441 24.2037 96.0441 23.5624 96.0441 23.5624L103.351 16.2207V32.8786C103.419 33.8238 103.774 34.617 104.417 35.2584C105.094 35.8659 105.889 36.1696 106.802 36.1696C107.716 36.1696 108.511 35.8659 109.187 35.2584C109.898 34.617 110.253 33.8406 110.253 32.9292C110.253 32.0179 110.253 31.0052 110.253 29.8913C110.253 28.7438 110.253 27.5961 110.253 26.4484C110.253 25.1321 110.253 23.8492 110.253 22.6003C110.253 21.3514 110.253 20.2545 110.253 19.3093C110.253 18.3979 110.253 17.6722 110.253 17.1322C110.253 16.5583 110.253 16.2714 110.253 16.2714L117.459 16.2207ZM126.335 42.7518V23.0561L133.643 16.2207V23.1068V42.7518H126.335ZM135.977 23.1068H119.637L126.538 16.2207H142.879L135.977 23.1068ZM137.802 42.7518V34.1443L155.717 16.2207H162.008V42.7518H154.7V39.3595H143.182L149.728 32.8786H154.7V25.8407L137.802 42.7518Z" fill="#D60000"/>
<path d="M76.7588 53.9269C76.7588 53.9607 76.7588 53.9942 76.7588 54.028C76.7588 54.028 76.7588 54.0449 76.7588 54.0787C76.7588 54.1125 76.7588 54.1461 76.7588 54.1799C76.7588 54.7538 76.9786 55.1758 77.4186 55.4457C77.892 55.682 78.3996 55.8171 78.9408 55.8509C79.0762 55.8845 79.1946 55.9014 79.2961 55.9014C79.4314 55.9014 79.5498 55.9014 79.6513 55.9014C82.2563 55.9014 84.3368 56.6778 85.8931 58.2305C87.4831 59.7496 88.2949 61.6565 88.3288 63.9519C88.3627 66.2133 87.5676 68.1543 85.9438 69.7745C84.3538 71.3947 82.4254 72.2217 80.1587 72.2555C79.6175 72.2892 79.0254 72.3062 78.3825 72.3062C77.7398 72.3062 77.0803 72.3062 76.4036 72.3062C76.2344 72.3062 76.0483 72.3062 75.8453 72.3062C75.6761 72.3062 75.4902 72.3062 75.2871 72.3062C74.5428 72.3062 73.8324 72.3062 73.1558 72.3062C72.4792 72.3062 71.8871 72.3062 71.3797 72.3062C70.8722 72.2724 70.4663 72.2555 70.1617 72.2555C69.8573 72.2555 69.7051 72.2555 69.7051 72.2555V65.6227C69.7051 65.6565 70.0266 65.6733 70.6693 65.6733C71.312 65.6733 72.1071 65.6733 73.0543 65.6733C73.5955 65.7071 74.1538 65.7239 74.7289 65.7239C75.338 65.7239 75.9637 65.7239 76.6065 65.7239C77.0803 65.7239 77.5537 65.7239 78.0274 65.7239C78.5349 65.7239 79.0085 65.7239 79.4484 65.7239C79.8881 65.7239 80.2434 65.572 80.514 65.2683C80.8185 64.9307 80.9875 64.5764 81.0214 64.2051C81.0214 64.1712 81.0214 64.1545 81.0214 64.1545C81.0214 64.1207 81.0214 64.0869 81.0214 64.0532C81.0214 64.0194 81.0214 64.0026 81.0214 64.0026C81.0214 63.9688 81.0214 63.9519 81.0214 63.9519C80.9875 63.4794 80.8017 63.1248 80.4634 62.8887C80.1587 62.6524 79.702 62.5342 79.093 62.5342C76.4881 62.5342 74.3231 61.724 72.5977 60.1039C70.9061 58.45 70.0602 56.4416 70.0602 54.0787C70.0602 54.0112 70.0602 53.9436 70.0602 53.8762C70.0602 53.8087 70.0602 53.758 70.0602 53.7243C70.1617 51.4964 71.0414 49.6231 72.699 48.1042C74.3906 46.5514 76.3527 45.7751 78.5857 45.7751C79.4652 45.7751 80.3956 45.7751 81.3766 45.7751C82.3578 45.7751 83.3557 45.7751 84.3706 45.7751C87.0433 45.7751 89.4791 45.7751 91.678 45.7751C93.9109 45.7751 95.0274 45.7751 95.0274 45.7751L88.0752 52.6611C88.0752 52.6947 87.7369 52.7116 87.0603 52.7116C86.4175 52.7116 85.6223 52.6947 84.6752 52.6611C84.1677 52.6611 83.6263 52.6611 83.0512 52.6611C82.51 52.6611 81.9517 52.6611 81.3766 52.6611C80.8353 52.6611 80.3109 52.6611 79.8035 52.6611C79.2961 52.6611 78.8056 52.6611 78.3318 52.6611C77.9598 52.6611 77.6045 52.7791 77.2662 53.0154C76.9618 53.218 76.7926 53.5386 76.7588 53.9774V53.9269ZM89.6149 72.2555V63.648L107.528 45.7244H113.821V72.2555H106.513V68.8631H94.9941L101.54 62.3823H106.513V55.3444L89.6149 72.2555ZM138.316 63.9519V72.4581L124.157 58.3823H132.836L138.316 63.9519ZM115.328 72.2555V53.0154L122.584 45.7244V72.2555H115.328ZM122.584 45.7244C122.618 45.7581 123.092 45.7751 124.005 45.7751C124.952 45.7751 125.984 45.7751 127.101 45.7751C127.541 45.7751 127.98 45.7751 128.42 45.7751C128.86 45.7751 129.266 45.7751 129.639 45.7751C132.243 45.7751 134.374 46.467 136.032 47.851C137.689 49.2012 138.518 51.294 138.518 54.1293C138.518 56.4247 137.723 58.3823 136.133 60.0026C134.578 61.6227 132.48 62.4329 129.84 62.4329C129.131 62.4329 128.674 62.3991 128.471 62.3316C128.268 62.2642 128.183 62.1798 128.217 62.0785C128.251 62.0448 128.285 62.011 128.319 61.9773C128.386 61.9435 128.437 61.9097 128.471 61.876C128.539 61.8422 128.606 61.8254 128.674 61.8254C128.742 61.7916 128.775 61.7746 128.775 61.7746L124.411 58.3823C124.411 58.4162 124.445 58.4331 124.513 58.4331C124.58 58.4331 124.733 58.4162 124.969 58.3823C125.206 58.3823 125.528 58.3823 125.934 58.3823C126.373 58.3823 126.965 58.3823 127.71 58.3823C128.792 58.3823 129.621 58.1124 130.196 57.5723C130.772 57.0322 131.059 56.3403 131.059 55.4963C131.059 55.4627 131.059 55.4457 131.059 55.4457C131.059 55.412 131.059 55.3951 131.059 55.3951C131.025 54.5849 130.772 53.9269 130.298 53.4204C129.859 52.9142 128.995 52.6611 127.71 52.6611C125.849 52.6611 124.53 52.6611 123.752 52.6611C122.973 52.6611 122.584 52.6611 122.584 52.6611V45.7244ZM139.259 72.2555V63.648L157.172 45.7244H163.466V72.2555H156.156V68.8631H144.638L151.185 62.3823H156.156V55.3444L139.259 72.2555ZM165.276 72.2555V53.0154L172.583 45.7244V72.2555H165.276ZM189.837 45.6738V72.2555L171.365 53.9269L172.583 45.6738L182.073 55.2433V45.6738H189.837ZM191.431 72.2555V63.648L209.343 45.7244H215.635V72.2555H208.328V68.8631H196.808L203.356 62.3823H208.328V55.3444L191.431 72.2555Z" fill="#D60000"/>
<path d="M85.6671 94.9966V101.629C85.6671 101.629 85.4303 101.629 84.9566 101.629C84.5169 101.629 84.0432 101.629 83.5358 101.629C83.2989 101.629 83.0791 101.629 82.876 101.629C82.6731 101.629 82.487 101.629 82.3177 101.629C78.6979 101.629 75.704 100.347 73.3359 97.7814C71.0014 95.2161 69.8175 92.195 69.7836 88.7183C69.716 84.904 71.103 81.6974 73.9447 79.0983C76.7866 76.4992 80.1528 75.1996 84.0432 75.1996C85.3288 75.1996 86.5129 75.1996 87.5953 75.1996C88.678 75.1996 89.6252 75.1828 90.4372 75.149C91.2152 75.149 91.8243 75.149 92.264 75.149C92.7377 75.149 92.9745 75.149 92.9745 75.149L87.2909 81.9844C87.2909 82.0181 86.9358 82.035 86.2253 82.035C85.5486 82.035 84.7198 82.035 83.7388 82.035C81.8781 82.035 80.2372 82.6932 78.8163 84.0097C77.3956 85.2923 76.7019 86.8618 76.7358 88.7183C76.7697 90.3724 77.3617 91.8406 78.5119 93.1233C79.6621 94.4059 81.066 95.0472 82.7238 95.0472C83.7049 95.0472 84.4322 95.0472 84.9059 95.0472C85.4132 95.0472 85.6671 95.0472 85.6671 95.0472V94.9966ZM86.3268 81.9844L87.3417 75.0984H94.1923L87.2909 81.9844H86.3268ZM89.6016 88.2627C89.6016 83.7733 91.0224 80.3979 93.8642 78.1363C96.7059 75.8409 99.8184 74.6764 103.201 74.6426C103.235 74.6426 103.252 74.6426 103.252 74.6426C103.286 74.6426 103.32 74.6426 103.354 74.6426C106.771 74.6426 109.9 75.7903 112.742 78.0857C115.583 80.3472 117.004 83.7564 117.004 88.3133C117.004 92.8364 115.583 96.2288 112.742 98.4903C109.9 100.752 106.788 101.899 103.404 101.933C103.371 101.933 103.337 101.933 103.303 101.933C103.303 101.933 103.286 101.933 103.252 101.933C99.8352 101.933 96.7059 100.802 93.8642 98.5409C91.0224 96.2794 89.6016 92.8701 89.6016 88.3133V88.2627ZM109.9 88.2627C109.9 86.1023 109.206 84.4653 107.819 83.3514C106.466 82.2374 104.961 81.6636 103.303 81.6298C103.269 81.6298 103.235 81.6298 103.201 81.6298C103.201 81.6298 103.184 81.6298 103.151 81.6298C101.493 81.6298 99.9706 82.1868 98.5835 83.3008C97.1965 84.4146 96.503 86.0855 96.503 88.3133C96.503 90.5072 97.1796 92.1613 98.5328 93.2752C99.9198 94.3892 101.442 94.963 103.1 94.9966C103.134 94.9966 103.151 94.9966 103.151 94.9966C103.184 94.9966 103.218 94.9966 103.252 94.9966C104.944 94.9966 106.466 94.4397 107.819 93.3258C109.206 92.212 109.9 90.541 109.9 88.3133V88.2627ZM117.793 101.629V93.2752L136.163 75.0477V86.4399L147.734 75.0477V101.629H140.781V90.0854L129.11 101.731V90.4904L117.793 101.629ZM149.297 101.629V82.3893L156.555 75.0984V101.629H149.297ZM156.555 75.0984C156.589 75.1321 157.063 75.149 157.976 75.149C158.924 75.149 159.955 75.149 161.071 75.149C161.512 75.149 161.95 75.149 162.391 75.149C162.83 75.149 163.236 75.149 163.608 75.149C166.213 75.149 168.515 75.9591 170.509 77.5794C172.541 79.1658 173.554 81.748 173.554 85.3261C173.554 87.959 172.591 90.2373 170.661 92.1613C168.735 94.0516 166.451 94.9966 163.811 94.9966C163.1 94.9966 162.407 94.9966 161.73 94.9966C161.089 94.9966 160.53 94.9797 160.056 94.9462C159.549 94.9462 159.143 94.9462 158.837 94.9462C158.567 94.9462 158.433 94.9462 158.433 94.9462V88.4146C158.433 88.4484 158.466 88.4652 158.534 88.4652C158.601 88.4652 158.753 88.4484 158.99 88.4146C159.228 88.4146 159.549 88.4146 159.955 88.4146C160.394 88.4146 160.987 88.4146 161.73 88.4146C162.814 88.4146 163.625 88.1276 164.167 87.5538C164.709 86.98 164.995 86.2712 165.029 85.4272C165.029 85.3597 165.029 85.3092 165.029 85.2754C165.029 85.2077 165.029 85.1572 165.029 85.1235C165.029 84.2796 164.759 83.5538 164.217 82.9463C163.709 82.3387 162.863 82.035 161.68 82.035C159.819 82.035 158.5 82.035 157.721 82.035C156.944 82.035 156.555 82.035 156.555 82.035V75.0984ZM195.393 75.0984C195.427 75.1996 195.445 76.4148 195.445 78.744C195.445 81.0392 195.445 83.5708 195.445 86.3387C195.445 87.2839 195.427 88.212 195.393 89.1235C195.393 90.0348 195.393 90.9124 195.393 91.7563C195.36 94.6254 194.277 97.0557 192.146 99.0472C190.015 101.039 187.494 102.034 184.584 102.034C181.708 102.034 179.223 101.039 177.125 99.0472C175.027 97.0557 173.979 94.6254 173.979 91.7563C173.979 91.2836 173.979 90.7774 173.979 90.2373C173.979 89.6973 173.979 89.1572 173.979 88.617C173.979 87.0644 173.979 85.6467 173.979 84.364C173.979 83.0813 173.979 82.44 173.979 82.44L181.285 75.0984V91.7563C181.354 92.7014 181.708 93.4946 182.351 94.136C183.027 94.7435 183.823 95.0472 184.737 95.0472C185.65 95.0472 186.445 94.7435 187.122 94.136C187.833 93.4946 188.187 92.7182 188.187 91.8068C188.187 90.8955 188.187 89.8828 188.187 88.7689C188.187 87.6214 188.187 86.4737 188.187 85.3261C188.187 84.0097 188.187 82.7268 188.187 81.4779C188.187 80.229 188.187 79.1321 188.187 78.187C188.187 77.2755 188.187 76.5498 188.187 76.0098C188.187 75.436 188.187 75.149 188.187 75.149L195.393 75.0984ZM204.27 101.629V81.9337L211.577 75.0984V81.9844V101.629H204.27ZM213.912 81.9844H197.571L204.472 75.0984H220.814L213.912 81.9844ZM215.989 101.629V82.3893L223.297 75.0984V81.9844V101.629H215.989ZM223.297 101.629H232.839V94.9966H221.268L223.297 101.629ZM223.297 91.7563H232.839V85.2248H220.862L223.297 91.7563ZM232.737 81.9844H221.471L223.297 75.0984H239.639L232.737 81.9844Z" fill="#D60000"/>
<path d="M257.797 93.3251V101.831L243.639 87.7556H252.318L257.797 93.3251ZM234.809 101.629V82.3886L242.066 75.0977V101.629H234.809ZM242.066 75.0977C242.1 75.1313 242.573 75.1484 243.487 75.1484C244.434 75.1484 245.465 75.1484 246.582 75.1484C247.022 75.1484 247.462 75.1484 247.903 75.1484C248.341 75.1484 248.748 75.1484 249.121 75.1484C251.724 75.1484 253.855 75.8402 255.515 77.2242C257.171 78.5744 258 80.6671 258 83.5026C258 85.7979 257.206 87.7556 255.614 89.3758C254.06 90.996 251.962 91.8062 249.323 91.8062C248.614 91.8062 248.155 91.7724 247.953 91.7049C247.75 91.6374 247.665 91.553 247.698 91.4517C247.734 91.4179 247.767 91.3841 247.8 91.3506C247.868 91.3167 247.919 91.2829 247.953 91.2493C248.02 91.2155 248.089 91.1987 248.155 91.1987C248.225 91.1649 248.257 91.1478 248.257 91.1478L243.892 87.7556C243.892 87.7894 243.927 87.8062 243.994 87.8062C244.063 87.8062 244.216 87.7894 244.451 87.7556C244.689 87.7556 245.01 87.7556 245.416 87.7556C245.855 87.7556 246.446 87.7556 247.191 87.7556C248.275 87.7556 249.104 87.4857 249.678 86.9454C250.254 86.4054 250.541 85.7135 250.541 84.8695C250.541 84.8358 250.541 84.8189 250.541 84.8189C250.541 84.7853 250.541 84.7682 250.541 84.7682C250.507 83.9582 250.254 83.3 249.779 82.7937C249.339 82.2875 248.478 82.0343 247.191 82.0343C245.33 82.0343 244.013 82.0343 243.234 82.0343C242.454 82.0343 242.066 82.0343 242.066 82.0343V75.0977Z" fill="#D60000"/>
</g>
</g>
</g>
<defs>
<clipPath id="clip0_1390_36">
<rect width="258" height="128" fill="white"/>
</clipPath>
</defs>
</svg>
