<svg width="300" height="300" viewBox="0 0 300 300" fill="none" xmlns="http://www.w3.org/2000/svg">
<g clip-path="url(#clip0_668_32)">
<path fill-rule="evenodd" clip-rule="evenodd" d="M198.483 224.642C196.729 239.121 187.955 250.717 174.365 256.524C166.797 259.758 156.635 261.505 148.592 260.956C136.044 260.477 124.256 257.425 113.39 251.847C109.508 249.853 103.721 245.872 99.2779 242.143C98.1525 241.201 98.0188 240.597 98.7635 239.54C99.1656 238.934 99.907 237.84 101.546 235.439C103.922 231.957 104.219 231.52 104.486 231.112C105.247 229.945 106.482 229.843 107.701 230.802C107.829 230.902 107.829 230.902 107.926 230.977C108.126 231.132 108.126 231.132 108.597 231.499C109.075 231.871 109.358 232.09 109.472 232.176C121.191 241.355 134.839 246.648 148.618 247.177C167.788 246.916 181.573 238.296 184.043 225.061C186.759 210.495 175.325 197.912 152.953 190.899C145.957 188.706 128.272 181.627 125.011 179.714C109.698 170.73 102.539 158.961 103.556 144.426C105.115 124.277 123.82 109.249 147.455 109.148C158.025 109.127 168.572 111.323 178.704 115.593C182.292 117.105 188.698 120.591 190.909 122.242C192.183 123.177 192.435 124.268 191.704 125.444C191.297 126.126 190.623 127.207 189.202 129.461L189.186 129.486C187.316 132.455 187.258 132.548 186.829 133.242C186.087 134.371 185.216 134.476 183.879 133.628C173.036 126.344 161.017 122.68 147.798 122.415C131.34 122.741 119.005 132.535 118.194 145.878C117.978 157.929 127.017 166.727 146.541 173.435C186.171 186.17 201.337 201.101 198.483 224.642ZM149.54 16.6042C175.341 16.6042 196.373 41.0895 197.357 71.7399H101.724C102.708 41.0895 123.739 16.6042 149.54 16.6042ZM283.071 77.5024C283.071 74.3198 280.508 71.7399 277.347 71.7399H215.361C213.84 31.2701 184.953 -1 149.54 -1C114.128 -1 85.241 31.2701 83.7202 71.7399L21.6453 71.7411C18.5329 71.7976 16.027 74.356 16.027 77.5024C16.027 77.6529 16.0326 77.8022 16.0438 77.9492H16L24.8488 273.009C24.8499 273.552 24.8701 274.1 24.9105 274.65C24.9195 274.775 24.9296 274.898 24.9397 275.021L24.9588 275.433L24.9802 275.455C26.3247 289.028 36.1753 299.96 49.5697 300.465L49.6001 300.494H246.507C246.6 300.495 246.693 300.496 246.786 300.496C246.879 300.496 246.973 300.495 247.066 300.494H247.485L247.494 300.486C261.122 300.114 272.161 289.029 273.327 275.288L273.334 275.282L273.343 275.097C273.354 274.952 273.364 274.809 273.373 274.664C273.395 274.318 273.409 273.973 273.415 273.63L283.07 77.8H283.063C283.069 77.7016 283.071 77.602 283.071 77.5024Z" fill="white"/>
</g>
<defs>
<clipPath id="clip0_668_32">
<rect width="300" height="300" fill="white"/>
</clipPath>
</defs>
</svg>
