<svg width="300" height="300" viewBox="0 0 300 300" fill="none" xmlns="http://www.w3.org/2000/svg">
<g clip-path="url(#clip0_451_29)">
<g filter="url(#filter0_d_451_29)">
<path d="M32.3359 244.246C25.2949 244.246 23.2832 235.019 23.2832 229.482C23.2832 218.41 31.33 208.259 35.3534 200.877C41.3885 191.65 45.4119 184.268 47.4236 173.195C51.447 158.431 53.4587 143.667 54.4646 128.904C56.4763 109.526 60.4997 90.1483 69.5524 72.6162C77.5992 55.0841 85.646 44.0112 98.7221 31.0928C102.745 26.4791 110.792 20.9426 115.822 17.2517C120.851 13.5607 124.874 11.7152 127.892 10.7925H130.909C136.944 12.638 135.939 23.7109 136.944 28.3246C137.95 35.7065 137.95 43.0885 139.962 49.5477C143.985 61.5433 149.015 60.6206 159.073 56.0069C171.143 51.3932 172.149 58.7751 177.178 67.0798C183.214 79.0754 194.278 72.6162 204.336 68.9253C210.372 66.157 217.413 62.4661 223.448 62.4661C233.506 62.4661 238.535 79.0754 241.553 86.4574C243.565 94.7621 243.565 97.5303 248.594 100.299C257.647 104.912 268.711 112.294 269.717 125.213C260.664 125.213 264.688 127.058 263.682 135.363C261.67 149.204 256.641 139.054 260.664 155.663C260.664 158.431 261.67 160.277 261.67 163.968C261.67 169.504 262.676 175.041 262.676 181.5C262.676 184.268 261.67 202.723 260.664 206.414C259.658 210.105 254.629 212.873 251.611 214.719C250.606 215.641 248.594 216.564 246.582 218.41C244.571 221.178 243.565 224.869 242.559 227.637C236.524 242.401 232.5 244.246 227.471 251.628C207.806 270.112 153.577 296.648 93.9755 254.928C87.1541 253.781 69.6957 256.761 54.4325 277.851C47.7375 280.569 34.1464 282.268 33.3417 267.315C35.3534 265.469 42.3944 253.474 43.4002 250.706C46.4178 247.015 48.4295 243.324 48.4295 236.864C40.3827 236.864 42.3944 244.246 32.3359 244.246Z" fill="black"/>
<path d="M32.3359 249.246C34.9572 249.246 37.175 248.842 39.1018 248.064L38.9912 248.199L38.7008 248.998C38.3922 249.848 36.6554 253.112 34.4565 256.791C33.4164 258.531 32.3646 260.211 31.4699 261.543C30.5539 262.906 30.0599 263.51 29.9748 263.614C29.9647 263.626 29.9604 263.632 29.9617 263.63L28.2221 265.226L28.3489 267.584C28.5908 272.078 29.8269 275.84 32.1018 278.739C34.3943 281.66 37.4114 283.282 40.4436 284.055C46.2342 285.531 52.4738 284.043 56.3135 282.484L57.6422 281.944L58.4829 280.783C71.9181 262.219 86.5355 259.382 92.1505 259.747C153.855 302.193 210.186 274.737 230.896 255.272L231.295 254.896L231.603 254.444C232.775 252.724 233.996 251.234 235.279 249.669C238.721 245.47 242.61 240.726 247.187 229.529L247.224 229.437L247.258 229.345C247.532 228.592 247.778 227.878 248.011 227.201C248.756 225.039 249.373 223.247 250.346 221.757C250.935 221.261 251.551 220.835 252.214 220.4C252.321 220.33 252.444 220.251 252.574 220.166C252.873 219.972 253.211 219.753 253.49 219.563C253.794 219.358 254.168 219.095 254.551 218.783C254.66 218.717 254.774 218.649 254.892 218.577C256.265 217.75 258.236 216.562 259.983 215.189C261.951 213.641 264.547 211.184 265.488 207.729C265.866 206.342 266.149 204.079 266.377 201.865C266.62 199.496 266.845 196.696 267.035 193.958C267.411 188.55 267.676 183.081 267.676 181.5C267.676 178.027 267.405 174.83 267.154 171.953L267.133 171.712C266.885 168.873 266.67 166.407 266.67 163.968C266.67 161.627 266.342 159.861 266.072 158.497L266.052 158.396C265.789 157.074 265.664 156.442 265.664 155.663V155.066L265.524 154.486C264.52 150.343 264.195 148.298 264.152 147.245C264.648 146.681 265.568 145.552 266.174 144.452C267.257 142.489 268.077 139.887 268.63 136.082L268.638 136.023L268.645 135.964C268.93 133.613 268.878 131.692 268.784 130.221C269.066 130.215 269.376 130.213 269.717 130.213H275.121L274.702 124.824C273.469 108.996 259.993 100.505 250.941 95.8827C249.304 94.9722 248.917 94.3794 248.545 93.5026C248.071 92.3834 247.761 91.0446 247.218 88.6971C246.997 87.7426 246.737 86.6213 246.412 85.2802L246.324 84.9141L246.181 84.5655C245.887 83.8449 245.547 82.9589 245.162 81.9569C243.809 78.4292 241.904 73.4636 239.485 69.2181C236.527 64.0269 231.475 57.4661 223.448 57.4661C219.502 57.4661 215.546 58.6524 212.083 59.9963C209.445 61.0201 206.758 62.2778 204.372 63.3945C203.696 63.7107 203.045 64.0156 202.426 64.3007C201.162 64.7679 199.897 65.2697 198.692 65.7476L198.686 65.7499C197.398 66.2607 196.176 66.7453 194.971 67.1887C192.528 68.0879 190.451 68.7036 188.65 68.921C186.895 69.1328 185.696 68.93 184.793 68.4775C183.923 68.0413 182.788 67.1039 181.645 64.8326L181.557 64.6575L181.455 64.4897C180.675 63.2014 180.057 62.0426 179.408 60.8265C179.058 60.1692 178.698 59.4951 178.299 58.7749C177.283 56.9399 176.009 54.8114 174.239 53.1022C172.316 51.2445 169.867 49.9326 166.748 49.644C163.817 49.3729 160.676 50.0415 157.288 51.3364L157.136 51.3944L156.989 51.4622C154.505 52.6013 152.604 53.3823 151.056 53.8175C149.506 54.2534 148.734 54.2153 148.372 54.1323C148.126 54.076 146.647 53.7294 144.72 48.0098C143.874 45.2747 143.414 42.2257 143.048 38.7576C142.93 37.6382 142.819 36.4342 142.704 35.1851C142.479 32.7479 142.238 30.1387 141.899 27.6495L141.872 27.4532L141.83 27.2595C141.666 26.507 141.562 25.3425 141.409 23.4875L141.407 23.4692C141.269 21.789 141.096 19.6969 140.737 17.6546C140.382 15.636 139.788 13.2965 138.615 11.2112C137.389 9.0299 135.411 6.94046 132.371 6.01104L131.657 5.79248H130.909H127.892H127.144L126.43 6.01104C122.803 7.11997 118.281 9.24464 112.863 13.2207C112.177 13.7243 111.41 14.2799 110.589 14.8741C108.529 16.3659 106.133 18.101 103.843 19.8657C100.719 22.2727 97.4304 25.0045 95.0816 27.6609C81.7 40.9015 73.3269 52.4319 65.0563 70.4258C55.6376 88.7122 51.5304 108.746 49.4913 128.387L49.4822 128.475L49.4762 128.564C48.4854 143.105 46.5118 157.525 42.5996 171.881L42.5428 172.089L42.5042 172.301C40.6659 182.42 37.0513 189.147 31.1689 198.141L31.0591 198.309L30.9632 198.485C30.1722 199.936 29.2104 201.507 28.1019 203.319C27.9065 203.638 27.7067 203.964 27.5024 204.299C26.1749 206.474 24.7144 208.906 23.3718 211.492C20.7106 216.619 18.2832 222.77 18.2832 229.482C18.2832 232.705 18.8477 237.173 20.6288 241.035C22.4342 244.949 26.0715 249.246 32.3359 249.246Z" stroke="white" stroke-width="10"/>
</g>
<path fill-rule="evenodd" clip-rule="evenodd" d="M69.552 92.9165C95.7041 96.6074 101.739 127.981 80.6163 127.981C71.5637 128.903 68.5461 125.212 62.511 121.521C62.511 125.212 61.5051 131.672 61.5051 134.44C65.5286 142.745 73.5754 141.822 83.6339 143.667C99.7275 145.513 100.733 169.504 79.6105 175.963C67.5403 179.654 65.5286 175.041 56.4759 171.35L53.4583 182.422C56.4759 183.345 55.47 187.036 62.511 188.882C66.5344 190.727 71.5637 190.727 75.5871 191.65C83.6339 193.495 91.6807 200.877 86.6514 210.105C78.6046 226.714 42.394 217.487 40.3823 211.027C38.3706 212.873 35.353 219.332 34.3472 222.1C32.3355 228.56 32.3355 230.405 34.3472 235.942C45.4115 235.942 47.4232 211.95 63.5168 228.56C68.5461 234.096 68.5461 240.555 64.5227 247.014C60.4993 252.551 57.4817 252.551 48.4291 254.396C45.4115 260.856 41.3881 263.624 41.3881 272.851C42.394 272.851 45.4115 275.619 47.4232 274.697C47.4232 274.697 51.4466 271.006 52.4525 270.083C54.4642 268.238 55.47 267.315 56.4759 265.469C63.5168 257.165 75.5871 249.783 85.6456 246.092C93.6924 242.401 93.6924 243.323 98.7217 247.937C125.88 271.006 171.143 279.31 202.324 260.856C213.389 255.319 212.383 255.319 219.424 248.86C227.471 241.478 222.441 247.014 228.476 238.71C233.506 233.173 237.529 225.791 237.529 218.409C230.488 218.409 224.453 220.255 220.43 224.869C215.4 228.56 212.383 232.251 206.348 235.019C182.207 247.937 153.038 248.86 131.915 232.251C126.885 228.56 122.862 224.869 119.845 218.409C118.839 214.718 114.815 205.491 113.809 200.877C120.85 202.723 129.903 210.105 147.003 214.718C160.079 218.409 174.161 221.178 188.242 221.178C207.354 221.178 232.5 220.255 247.588 210.105C253.623 205.491 254.629 200.877 254.629 192.573C256.64 177.809 254.629 163.045 251.611 149.204C247.588 135.363 231.494 92.9165 224.453 81.8435C212.383 65.2342 203.33 82.7663 190.254 80.9208C189.248 82.7663 185.225 82.7663 183.213 83.689C183.213 86.4573 199.307 108.603 199.307 113.217C195.283 109.526 189.248 102.144 185.225 95.6847C183.213 91.9937 172.149 78.1526 172.149 77.2298C170.137 76.3071 166.114 71.6934 164.102 70.7706C161.084 68.9252 155.049 68.0024 151.026 69.8479C144.991 72.6161 131.915 85.5345 126.885 90.1482C119.845 97.5302 116.827 101.221 110.792 110.449C109.786 112.294 108.78 113.217 106.768 115.062C107.774 104.912 120.85 91.071 126.885 83.689C131.915 79.0753 139.962 73.5389 142.979 68.9252C139.962 64.3114 135.938 62.466 133.926 56.9295C129.903 48.6248 129.903 37.5519 125.88 30.17C123.868 27.4017 121.856 28.3245 118.839 30.17C112.804 32.0154 109.786 35.7064 105.763 39.3974L84.6397 62.466C79.6105 68.9252 71.5637 83.689 69.552 92.9165Z" fill="#80BD25"/>
<path fill-rule="evenodd" clip-rule="evenodd" d="M121.856 123.367C118.839 133.518 116.827 143.668 121.856 153.818C134.932 179.655 180.196 174.118 185.225 141.822C187.237 122.445 176.172 114.14 174.161 109.526C162.09 108.604 156.055 107.681 143.985 110.449C134.932 113.217 125.88 117.831 121.856 123.367Z" fill="#FCFCFE"/>
<path fill-rule="evenodd" clip-rule="evenodd" d="M205.342 229.481C195.284 224.868 172.149 223.022 160.079 221.177C145.997 218.408 122.863 208.258 119.845 208.258C122.863 244.245 198.302 248.859 205.342 229.481Z" fill="#D81218"/>
<path fill-rule="evenodd" clip-rule="evenodd" d="M40.3837 211.028C42.3954 217.487 78.606 226.714 86.6528 210.105C91.6821 200.878 83.6353 193.496 75.5885 191.65C71.5651 190.728 66.5358 190.728 62.5124 188.882C55.4714 187.037 56.4773 183.346 53.4597 182.423C51.448 187.959 50.4422 192.573 47.4246 197.187C45.4129 201.8 41.3895 207.337 40.3837 211.028Z" fill="#F0E800"/>
<path fill-rule="evenodd" clip-rule="evenodd" d="M56.4774 171.349C65.5301 175.04 67.5418 179.654 79.612 175.963C100.735 169.504 99.729 145.512 83.6354 143.667C73.5769 141.821 65.5301 142.744 61.5067 134.439C60.5008 137.208 60.5008 149.203 59.495 153.817C58.4891 159.354 57.4833 165.813 56.4774 171.349Z" fill="#DA0075"/>
<path fill-rule="evenodd" clip-rule="evenodd" d="M62.5116 121.521C68.5467 125.212 71.5643 128.903 80.6169 127.98C101.74 127.98 95.7047 96.607 69.5526 92.916C66.535 103.066 65.5292 110.448 62.5116 121.521Z" fill="#008DCF"/>
<path fill-rule="evenodd" clip-rule="evenodd" d="M116.828 126.135C117.833 126.135 117.833 125.213 116.828 129.826C115.822 134.44 115.822 139.977 115.822 144.59C116.828 150.127 118.839 155.663 120.851 159.354C135.939 183.345 178.184 181.5 186.231 155.663C187.237 151.049 188.243 142.745 186.231 138.131L185.225 141.822C180.196 174.118 134.933 179.654 121.857 153.818C116.828 143.668 118.839 133.517 121.857 123.367C120.851 123.367 119.845 124.29 118.839 124.29L117.833 125.213C116.828 126.135 116.828 125.213 116.828 126.135Z" fill="#62A531"/>
<path fill-rule="evenodd" clip-rule="evenodd" d="M145.998 125.212C129.904 127.058 133.927 146.436 148.009 145.513C162.091 144.59 158.068 122.444 145.998 125.212Z" fill="#0B0202"/>
<path fill-rule="evenodd" clip-rule="evenodd" d="M119.845 119.677C123.868 117.831 126.886 115.986 130.909 113.218C134.933 111.372 138.956 109.527 143.986 108.604C154.044 105.836 164.103 106.759 175.167 108.604C171.144 103.99 151.026 98.4538 141.974 100.299C129.904 101.222 124.874 110.449 119.845 119.677Z" fill="#62A531"/>
<path fill-rule="evenodd" clip-rule="evenodd" d="M245.576 122.444C245.576 124.289 251.611 139.053 252.617 141.821C260.664 138.13 260.664 131.671 260.664 122.444C254.629 120.598 249.599 117.83 245.576 122.444Z" fill="#FFFEFE"/>
<path fill-rule="evenodd" clip-rule="evenodd" d="M245.576 122.445C249.6 117.831 254.629 120.6 260.664 122.445C258.652 116.909 256.64 114.141 253.623 111.372C250.605 109.527 245.576 106.759 240.547 107.681C240.547 112.295 243.564 119.677 245.576 122.445Z" fill="#619633"/>
<path fill-rule="evenodd" clip-rule="evenodd" d="M190.255 80.9205L177.179 82.7659C175.167 79.075 176.173 79.075 172.15 77.2295C172.15 78.1522 183.214 91.9934 185.226 95.6843C189.249 102.144 195.284 109.525 199.308 113.216C199.308 108.603 183.214 86.4569 183.214 83.6887C185.226 82.7659 189.249 82.7659 190.255 80.9205Z" fill="#2B3F20"/>
<path fill-rule="evenodd" clip-rule="evenodd" d="M119.845 119.675C119.845 121.521 116.827 123.366 115.821 124.289C114.815 125.212 111.798 128.903 110.792 129.826C112.804 127.98 114.815 127.057 116.827 126.135C116.827 125.212 116.827 126.135 117.833 125.212L118.839 124.289C119.845 124.289 120.85 123.366 121.856 123.366C125.88 117.83 134.932 113.216 143.985 110.448C156.055 107.68 162.09 108.603 174.161 109.525L180.196 110.448L175.166 108.603C164.102 106.757 154.043 105.834 143.985 108.603C138.956 109.525 134.932 111.371 130.909 113.216C126.885 115.985 123.868 117.83 119.845 119.675Z" fill="#355125"/>
<path fill-rule="evenodd" clip-rule="evenodd" d="M201.319 183.345C201.319 187.959 201.319 189.804 205.342 190.727C209.366 192.573 213.389 190.727 214.395 187.959C217.412 179.654 203.33 176.886 201.319 183.345Z" fill="#0E1908"/>
<path fill-rule="evenodd" clip-rule="evenodd" d="M245.577 175.964C237.53 177.809 239.542 187.036 246.583 184.268C253.624 182.423 252.618 174.118 245.577 175.964Z" fill="#121A09"/>
<path d="M121.916 223.856C121.02 223.308 120.161 222.812 119.323 222.362H120.055V219.362C120.055 211.817 115.472 206.913 109.573 204.065C103.787 201.272 96.415 200.24 89.5966 200.24H89.5507L89.5049 200.242C71.5658 200.79 58.3272 212.878 51.9549 228.157C45.6045 243.383 45.8281 262.267 55.1489 277.295C55.3624 277.692 55.5836 278.146 55.8537 278.7L55.8887 278.772C56.1793 279.368 56.5152 280.054 56.8949 280.75C57.6117 282.065 58.5609 283.566 59.8997 284.855C61.506 286.901 65.1656 289.8 69.57 291.755C74.2216 293.819 80.3441 295.115 86.3358 292.672L86.8344 292.469L87.2263 292.109C87.2266 292.11 87.2845 292.061 87.4351 291.96C87.5967 291.851 87.8088 291.718 88.0731 291.561C88.6062 291.244 89.2467 290.892 89.9448 290.507L89.9709 290.493C90.6385 290.125 91.3603 289.728 91.986 289.357C92.5569 289.018 93.2895 288.562 93.8213 288.075C96.9171 285.234 98.3164 284.661 99.8239 284.417C100.751 284.267 101.794 284.236 103.45 284.187L103.466 284.187C105.047 284.14 107.009 284.076 109.519 283.826C114.451 283.821 121.513 283.572 127.424 281.069C130.466 279.781 133.334 277.845 135.434 274.926C137.551 271.985 138.728 268.264 138.728 263.697C138.728 255.589 135.165 250.158 130.014 246.615C128.848 245.812 127.606 245.11 126.316 244.492C126.339 244.488 126.361 244.484 126.384 244.48L127.564 244.263L128.269 243.293C131.398 238.987 130.439 234.375 128.614 231.025C126.829 227.75 123.969 225.111 121.916 223.856Z" fill="white"/>
<path d="M121.916 223.856C121.02 223.308 120.161 222.812 119.323 222.362H120.055V219.362C120.055 211.817 115.472 206.913 109.573 204.065C103.787 201.272 96.415 200.24 89.5966 200.24H89.5507L89.5049 200.242C71.5658 200.79 58.3272 212.878 51.9549 228.157C45.6045 243.383 45.8281 262.267 55.1489 277.295C55.3624 277.692 55.5836 278.146 55.8537 278.7L55.8887 278.772C56.1793 279.368 56.5152 280.054 56.8949 280.75C57.6117 282.065 58.5609 283.566 59.8997 284.855C61.506 286.901 65.1656 289.8 69.57 291.755C74.2216 293.819 80.3441 295.115 86.3358 292.672L86.8344 292.469L87.2263 292.109C87.2266 292.11 87.2845 292.061 87.4351 291.96C87.5967 291.851 87.8088 291.718 88.0731 291.561C88.6062 291.244 89.2467 290.892 89.9448 290.507L89.9709 290.493C90.6385 290.125 91.3603 289.728 91.986 289.357C92.5569 289.018 93.2895 288.562 93.8213 288.075C96.9171 285.234 98.3164 284.661 99.8239 284.417C100.751 284.267 101.794 284.236 103.45 284.187L103.466 284.187C105.047 284.14 107.009 284.076 109.519 283.826C114.451 283.821 121.513 283.572 127.424 281.069C130.466 279.781 133.334 277.845 135.434 274.926C137.551 271.985 138.728 268.264 138.728 263.697C138.728 255.589 135.165 250.158 130.014 246.615C128.848 245.812 127.606 245.11 126.316 244.492C126.339 244.488 126.361 244.484 126.384 244.48L127.564 244.263L128.269 243.293C131.398 238.987 130.439 234.375 128.614 231.025C126.829 227.75 123.969 225.111 121.916 223.856Z" stroke="black" stroke-width="6"/>
<path d="M121.916 223.856C121.02 223.308 120.161 222.812 119.323 222.362H120.055V219.362C120.055 211.817 115.472 206.913 109.573 204.065C103.787 201.272 96.415 200.24 89.5966 200.24H89.5507L89.5049 200.242C71.5658 200.79 58.3272 212.878 51.9549 228.157C45.6045 243.383 45.8281 262.267 55.1489 277.295C55.3624 277.692 55.5836 278.146 55.8537 278.7L55.8887 278.772C56.1793 279.368 56.5152 280.054 56.8949 280.75C57.6117 282.065 58.5609 283.566 59.8997 284.855C61.506 286.901 65.1656 289.8 69.57 291.755C74.2216 293.819 80.3441 295.115 86.3358 292.672L86.8344 292.469L87.2263 292.109C87.2266 292.11 87.2845 292.061 87.4351 291.96C87.5967 291.851 87.8088 291.718 88.0731 291.561C88.6062 291.244 89.2467 290.892 89.9448 290.507L89.9709 290.493C90.6385 290.125 91.3603 289.728 91.986 289.357C92.5569 289.018 93.2895 288.562 93.8213 288.075C96.9171 285.234 98.3164 284.661 99.8239 284.417C100.751 284.267 101.794 284.236 103.45 284.187L103.466 284.187C105.047 284.14 107.009 284.076 109.519 283.826C114.451 283.821 121.513 283.572 127.424 281.069C130.466 279.781 133.334 277.845 135.434 274.926C137.551 271.985 138.728 268.264 138.728 263.697C138.728 255.589 135.165 250.158 130.014 246.615C128.848 245.812 127.606 245.11 126.316 244.492C126.339 244.488 126.361 244.484 126.384 244.48L127.564 244.263L128.269 243.293C131.398 238.987 130.439 234.375 128.614 231.025C126.829 227.75 123.969 225.111 121.916 223.856Z" stroke="black" stroke-opacity="0.2" stroke-width="6"/>
<path d="M62.4461 208.529L62.8031 212.786L66.6864 211.005C69.0316 209.929 72.4564 207.854 74.9144 205.666C76.0443 205.013 77.1826 204.634 78.5418 204.183C78.6526 204.146 78.7649 204.109 78.8788 204.071C80.3535 203.579 82.3119 202.913 83.939 201.42L84.7135 200.71L84.8752 199.671C86.1049 191.775 83.6549 183.042 80.1517 176.614C78.4038 173.407 76.1149 170.241 72.5534 168.444C68.9939 166.648 64.7013 166.479 59.4647 168.009C58.8506 168.041 58.2069 168.143 57.5757 168.387C56.7118 168.721 56.0587 169.246 55.5618 169.854C55.1247 170.388 54.8268 170.971 54.6344 171.356C54.5652 171.495 54.5034 171.621 54.4443 171.742C54.3578 171.918 54.277 172.083 54.1872 172.258C53.3013 173.29 52.9204 174.515 52.7022 175.217C52.6967 175.234 52.6913 175.252 52.6861 175.269C52.6479 175.391 52.6117 175.509 52.5769 175.622C52.3252 176.438 52.1453 177.021 51.8179 177.622L51.452 178.293V179.058C51.452 184.072 54.161 187.795 56.2487 190.664C56.3058 190.742 56.3625 190.82 56.4186 190.897L56.5956 191.141L56.8174 191.344C56.926 191.444 56.9961 191.516 57.1939 191.97C57.2353 192.065 57.2838 192.182 57.34 192.317C57.552 192.828 57.8743 193.604 58.3447 194.482C58.9682 195.891 59.5341 196.782 60.0216 197.498C60.0992 197.612 60.1692 197.714 60.233 197.807C60.5802 198.313 60.7423 198.549 60.9193 198.939C61.3618 199.913 61.8929 201.931 62.4461 208.529Z" fill="white"/>
<path d="M62.4461 208.529L62.8031 212.786L66.6864 211.005C69.0316 209.929 72.4564 207.854 74.9144 205.666C76.0443 205.013 77.1826 204.634 78.5418 204.183C78.6526 204.146 78.7649 204.109 78.8788 204.071C80.3535 203.579 82.3119 202.913 83.939 201.42L84.7135 200.71L84.8752 199.671C86.1049 191.775 83.6549 183.042 80.1517 176.614C78.4038 173.407 76.1149 170.241 72.5534 168.444C68.9939 166.648 64.7013 166.479 59.4647 168.009C58.8506 168.041 58.2069 168.143 57.5757 168.387C56.7118 168.721 56.0587 169.246 55.5618 169.854C55.1247 170.388 54.8268 170.971 54.6344 171.356C54.5652 171.495 54.5034 171.621 54.4443 171.742C54.3578 171.918 54.277 172.083 54.1872 172.258C53.3013 173.29 52.9204 174.515 52.7022 175.217C52.6967 175.234 52.6913 175.252 52.6861 175.269C52.6479 175.391 52.6117 175.509 52.5769 175.622C52.3252 176.438 52.1453 177.021 51.8179 177.622L51.452 178.293V179.058C51.452 184.072 54.161 187.795 56.2487 190.664C56.3058 190.742 56.3625 190.82 56.4186 190.897L56.5956 191.141L56.8174 191.344C56.926 191.444 56.9961 191.516 57.1939 191.97C57.2353 192.065 57.2838 192.182 57.34 192.317C57.552 192.828 57.8743 193.604 58.3447 194.482C58.9682 195.891 59.5341 196.782 60.0216 197.498C60.0992 197.612 60.1692 197.714 60.233 197.807C60.5802 198.313 60.7423 198.549 60.9193 198.939C61.3618 199.913 61.8929 201.931 62.4461 208.529Z" stroke="black" stroke-width="6"/>
<path d="M62.4461 208.529L62.8031 212.786L66.6864 211.005C69.0316 209.929 72.4564 207.854 74.9144 205.666C76.0443 205.013 77.1826 204.634 78.5418 204.183C78.6526 204.146 78.7649 204.109 78.8788 204.071C80.3535 203.579 82.3119 202.913 83.939 201.42L84.7135 200.71L84.8752 199.671C86.1049 191.775 83.6549 183.042 80.1517 176.614C78.4038 173.407 76.1149 170.241 72.5534 168.444C68.9939 166.648 64.7013 166.479 59.4647 168.009C58.8506 168.041 58.2069 168.143 57.5757 168.387C56.7118 168.721 56.0587 169.246 55.5618 169.854C55.1247 170.388 54.8268 170.971 54.6344 171.356C54.5652 171.495 54.5034 171.621 54.4443 171.742C54.3578 171.918 54.277 172.083 54.1872 172.258C53.3013 173.29 52.9204 174.515 52.7022 175.217C52.6967 175.234 52.6913 175.252 52.6861 175.269C52.6479 175.391 52.6117 175.509 52.5769 175.622C52.3252 176.438 52.1453 177.021 51.8179 177.622L51.452 178.293V179.058C51.452 184.072 54.161 187.795 56.2487 190.664C56.3058 190.742 56.3625 190.82 56.4186 190.897L56.5956 191.141L56.8174 191.344C56.926 191.444 56.9961 191.516 57.1939 191.97C57.2353 192.065 57.2838 192.182 57.34 192.317C57.552 192.828 57.8743 193.604 58.3447 194.482C58.9682 195.891 59.5341 196.782 60.0216 197.498C60.0992 197.612 60.1692 197.714 60.233 197.807C60.5802 198.313 60.7423 198.549 60.9193 198.939C61.3618 199.913 61.8929 201.931 62.4461 208.529Z" stroke="black" stroke-opacity="0.2" stroke-width="6"/>
<path d="M54.8761 285.765L59.1924 286.755L58.511 282.379C58.1589 280.118 57.138 277.859 56.1004 275.721C55.8429 275.191 55.5798 274.659 55.3135 274.121C54.4482 272.372 53.5484 270.554 52.6916 268.473C50.5078 263.17 48.7087 256.372 49.7422 246.892L49.7598 246.73V246.567C49.7598 246.09 49.8549 245.305 50.044 244.185C50.1533 243.538 50.2517 243.005 50.3551 242.446C50.4535 241.913 50.5564 241.355 50.6774 240.652C50.8867 239.436 51.0847 238.125 51.1459 236.945C51.1982 235.939 51.2069 234.351 50.4923 233.04L49.9064 231.965L48.7355 231.607C47.6882 231.286 46.5678 231.096 45.4511 231.279C44.2131 231.482 43.2625 232.095 42.5767 232.882C41.9834 233.562 41.6257 234.337 41.4166 234.801C41.3433 234.963 41.281 235.104 41.2248 235.232C41.0805 235.559 40.9764 235.795 40.8306 236.063L40.8026 236.114L40.7766 236.166C34.7313 248.367 37.1967 263.554 44.1849 274.308C44.8078 275.434 45.4297 276.289 45.9558 277.013L45.9805 277.047C46.5309 277.805 46.9747 278.42 47.4208 279.238L47.5138 279.409L47.6281 279.566C48.0515 280.149 48.3149 280.629 48.5526 281.093C48.5811 281.148 48.613 281.212 48.648 281.281C48.852 281.688 49.1647 282.31 49.5502 282.841C50.7562 284.5 52.484 285.216 54.8761 285.765Z" fill="white"/>
<path d="M54.8761 285.765L59.1924 286.755L58.511 282.379C58.1589 280.118 57.138 277.859 56.1004 275.721C55.8429 275.191 55.5798 274.659 55.3135 274.121C54.4482 272.372 53.5484 270.554 52.6916 268.473C50.5078 263.17 48.7087 256.372 49.7422 246.892L49.7598 246.73V246.567C49.7598 246.09 49.8549 245.305 50.044 244.185C50.1533 243.538 50.2517 243.005 50.3551 242.446C50.4535 241.913 50.5564 241.355 50.6774 240.652C50.8867 239.436 51.0847 238.125 51.1459 236.945C51.1982 235.939 51.2069 234.351 50.4923 233.04L49.9064 231.965L48.7355 231.607C47.6882 231.286 46.5678 231.096 45.4511 231.279C44.2131 231.482 43.2625 232.095 42.5767 232.882C41.9834 233.562 41.6257 234.337 41.4166 234.801C41.3433 234.963 41.281 235.104 41.2248 235.232C41.0805 235.559 40.9764 235.795 40.8306 236.063L40.8026 236.114L40.7766 236.166C34.7313 248.367 37.1967 263.554 44.1849 274.308C44.8078 275.434 45.4297 276.289 45.9558 277.013L45.9805 277.047C46.5309 277.805 46.9747 278.42 47.4208 279.238L47.5138 279.409L47.6281 279.566C48.0515 280.149 48.3149 280.629 48.5526 281.093C48.5811 281.148 48.613 281.212 48.648 281.281C48.852 281.688 49.1647 282.31 49.5502 282.841C50.7562 284.5 52.484 285.216 54.8761 285.765Z" stroke="black" stroke-width="6"/>
<path d="M54.8761 285.765L59.1924 286.755L58.511 282.379C58.1589 280.118 57.138 277.859 56.1004 275.721C55.8429 275.191 55.5798 274.659 55.3135 274.121C54.4482 272.372 53.5484 270.554 52.6916 268.473C50.5078 263.17 48.7087 256.372 49.7422 246.892L49.7598 246.73V246.567C49.7598 246.09 49.8549 245.305 50.044 244.185C50.1533 243.538 50.2517 243.005 50.3551 242.446C50.4535 241.913 50.5564 241.355 50.6774 240.652C50.8867 239.436 51.0847 238.125 51.1459 236.945C51.1982 235.939 51.2069 234.351 50.4923 233.04L49.9064 231.965L48.7355 231.607C47.6882 231.286 46.5678 231.096 45.4511 231.279C44.2131 231.482 43.2625 232.095 42.5767 232.882C41.9834 233.562 41.6257 234.337 41.4166 234.801C41.3433 234.963 41.281 235.104 41.2248 235.232C41.0805 235.559 40.9764 235.795 40.8306 236.063L40.8026 236.114L40.7766 236.166C34.7313 248.367 37.1967 263.554 44.1849 274.308C44.8078 275.434 45.4297 276.289 45.9558 277.013L45.9805 277.047C46.5309 277.805 46.9747 278.42 47.4208 279.238L47.5138 279.409L47.6281 279.566C48.0515 280.149 48.3149 280.629 48.5526 281.093C48.5811 281.148 48.613 281.212 48.648 281.281C48.852 281.688 49.1647 282.31 49.5502 282.841C50.7562 284.5 52.484 285.216 54.8761 285.765Z" stroke="black" stroke-opacity="0.2" stroke-width="6"/>
</g>
<defs>
<filter id="filter0_d_451_29" x="-26.7168" y="-23.2075" width="347.243" height="368.87" filterUnits="userSpaceOnUse" color-interpolation-filters="sRGB">
<feFlood flood-opacity="0" result="BackgroundImageFix"/>
<feColorMatrix in="SourceAlpha" type="matrix" values="0 0 0 0 0 0 0 0 0 0 0 0 0 0 0 0 0 0 127 0" result="hardAlpha"/>
<feOffset dy="16"/>
<feGaussianBlur stdDeviation="20"/>
<feComposite in2="hardAlpha" operator="out"/>
<feColorMatrix type="matrix" values="0 0 0 0 0 0 0 0 0 0 0 0 0 0 0 0 0 0 0.22 0"/>
<feBlend mode="normal" in2="BackgroundImageFix" result="effect1_dropShadow_451_29"/>
<feBlend mode="normal" in="SourceGraphic" in2="effect1_dropShadow_451_29" result="shape"/>
</filter>
<clipPath id="clip0_451_29">
<rect width="300" height="300" fill="white"/>
</clipPath>
</defs>
</svg>
